<?xml version="1.0" encoding="UTF-8"?>
<!DOCTYPE svg PUBLIC "-//W3C//DTD SVG 1.1//EN" "http://www.w3.org/Graphics/SVG/1.1/DTD/svg11.dtd">
<svg version="1.2" width="100.02mm" height="100.02mm" viewBox="1001 9851 10002 10002" preserveAspectRatio="xMidYMid" fill-rule="evenodd" stroke-width="28.222" stroke-linejoin="round" xmlns="http://www.w3.org/2000/svg" xmlns:ooo="http://xml.openoffice.org/svg/export" xmlns:xlink="http://www.w3.org/1999/xlink" xmlns:presentation="http://sun.com/xmlns/staroffice/presentation" xmlns:smil="http://www.w3.org/2001/SMIL20/" xmlns:anim="urn:oasis:names:tc:opendocument:xmlns:animation:1.0" xml:space="preserve">
 <defs className="EmbeddedBulletChars">
  <g id="bullet-char-template-57356" transform="scale(0.00048828125,-0.00048828125)">
   <path d="M 580,1141 L 1163,571 580,0 -4,571 580,1141 Z"/>
  </g>
  <g id="bullet-char-template-57354" transform="scale(0.00048828125,-0.00048828125)">
   <path d="M 8,1128 L 1137,1128 1137,0 8,0 8,1128 Z"/>
  </g>
  <g id="bullet-char-template-10146" transform="scale(0.00048828125,-0.00048828125)">
   <path d="M 174,0 L 602,739 174,1481 1456,739 174,0 Z M 1358,739 L 309,1346 659,739 1358,739 Z"/>
  </g>
  <g id="bullet-char-template-10132" transform="scale(0.00048828125,-0.00048828125)">
   <path d="M 2015,739 L 1276,0 717,0 1260,543 174,543 174,936 1260,936 717,1481 1274,1481 2015,739 Z"/>
  </g>
  <g id="bullet-char-template-10007" transform="scale(0.00048828125,-0.00048828125)">
   <path d="M 0,-2 C -7,14 -16,27 -25,37 L 356,567 C 262,823 215,952 215,954 215,979 228,992 255,992 264,992 276,990 289,987 310,991 331,999 354,1012 L 381,999 492,748 772,1049 836,1024 860,1049 C 881,1039 901,1025 922,1006 886,937 835,863 770,784 769,783 710,716 594,584 L 774,223 C 774,196 753,168 711,139 L 727,119 C 717,90 699,76 672,76 641,76 570,178 457,381 L 164,-76 C 142,-110 111,-127 72,-127 30,-127 9,-110 8,-76 1,-67 -2,-52 -2,-32 -2,-23 -1,-13 0,-2 Z"/>
  </g>
  <g id="bullet-char-template-10004" transform="scale(0.00048828125,-0.00048828125)">
   <path d="M 285,-33 C 182,-33 111,30 74,156 52,228 41,333 41,471 41,549 55,616 82,672 116,743 169,778 240,778 293,778 328,747 346,684 L 369,508 C 377,444 397,411 428,410 L 1163,1116 C 1174,1127 1196,1133 1229,1133 1271,1133 1292,1118 1292,1087 L 1292,965 C 1292,929 1282,901 1262,881 L 442,47 C 390,-6 338,-33 285,-33 Z"/>
  </g>
  <g id="bullet-char-template-9679" transform="scale(0.00048828125,-0.00048828125)">
   <path d="M 813,0 C 632,0 489,54 383,161 276,268 223,411 223,592 223,773 276,916 383,1023 489,1130 632,1184 813,1184 992,1184 1136,1130 1245,1023 1353,916 1407,772 1407,592 1407,412 1353,268 1245,161 1136,54 992,0 813,0 Z"/>
  </g>
  <g id="bullet-char-template-8226" transform="scale(0.00048828125,-0.00048828125)">
   <path d="M 346,457 C 273,457 209,483 155,535 101,586 74,649 74,723 74,796 101,859 155,911 209,963 273,989 346,989 419,989 480,963 531,910 582,859 608,796 608,723 608,648 583,586 532,535 482,483 420,457 346,457 Z"/>
  </g>
  <g id="bullet-char-template-8211" transform="scale(0.00048828125,-0.00048828125)">
   <path d="M -4,459 L 1135,459 1135,606 -4,606 -4,459 Z"/>
  </g>
  <g id="bullet-char-template-61548" transform="scale(0.00048828125,-0.00048828125)">
   <path d="M 173,740 C 173,903 231,1043 346,1159 462,1274 601,1332 765,1332 928,1332 1067,1274 1183,1159 1299,1043 1357,903 1357,740 1357,577 1299,437 1183,322 1067,206 928,148 765,148 601,148 462,206 346,322 231,437 173,577 173,740 Z"/>
  </g>
 </defs>
 <g className="Page">
  <g className="com.sun.star.drawing.CustomShape">
   <g id="id3">
    <rect className="BoundingBox" stroke="none" fill="none" x="1001" y="9851" width="10002" height="10002"/>
    <path fill="rgb(5,21,32)" stroke="none" d="M 11002,14852 C 11002,15729 10771,16592 10332,17352 9893,18112 9262,18743 8502,19182 7742,19621 6879,19852 6002,19852 5124,19852 4261,19621 3501,19182 2741,18743 2110,18112 1671,17352 1232,16592 1001,15729 1001,14852 1001,13974 1232,13111 1671,12351 2110,11591 2741,10960 3501,10521 4261,10082 5124,9851 6001,9851 6879,9851 7742,10082 8502,10521 9262,10960 9893,11591 10332,12351 10771,13111 11002,13974 11002,14851 L 11002,14852 Z"/>
   </g>
  </g>
  <g className="Group">
   <g className="com.sun.star.drawing.CustomShape">
    <g id="id4">
     <rect className="BoundingBox" stroke="none" fill="none" x="1342" y="13712" width="9281" height="2390"/>
     <path fill="rgb(189,188,188)" stroke="none" d="M 2537,13712 L 2537,13712 C 2328,13712 2122,13767 1940,13872 1759,13977 1608,14128 1503,14309 1398,14491 1343,14697 1343,14907 L 1343,14906 1343,14907 C 1343,15116 1398,15322 1503,15504 1608,15685 1759,15836 1940,15941 2122,16046 2328,16101 2538,16101 L 9427,16101 9428,16101 C 9637,16101 9843,16046 10025,15941 10206,15836 10357,15685 10462,15504 10567,15322 10622,15116 10622,14907 L 10622,14906 10622,14907 10622,14907 C 10622,14697 10567,14491 10462,14309 10357,14128 10206,13977 10025,13872 9843,13767 9637,13712 9428,13712 L 2537,13712 Z"/>
    </g>
   </g>
   <g className="com.sun.star.drawing.CustomShape">
    <g id="id5">
     <rect className="BoundingBox" stroke="none" fill="none" x="1888" y="13138" width="3824" height="2392"/>
     <path fill="rgb(189,188,188)" stroke="none" d="M 5711,14334 C 5711,14543 5623,14750 5455,14931 5287,15113 5046,15264 4755,15369 4465,15474 4135,15529 3800,15529 3464,15529 3134,15474 2844,15369 2553,15264 2312,15113 2144,14931 1976,14750 1888,14543 1888,14334 1888,14124 1976,13917 2144,13736 2312,13554 2553,13403 2844,13298 3134,13193 3464,13138 3799,13138 4135,13138 4465,13193 4755,13298 5046,13403 5287,13554 5455,13736 5623,13917 5711,14124 5711,14333 L 5711,14334 Z"/>
    </g>
   </g>
   <g className="com.sun.star.drawing.CustomShape">
    <g id="id6">
     <rect className="BoundingBox" stroke="none" fill="none" x="6365" y="12661" width="3823" height="2390"/>
     <path fill="rgb(189,188,188)" stroke="none" d="M 10187,13856 C 10187,14065 10099,14271 9931,14453 9763,14634 9522,14785 9232,14890 8941,14995 8612,15050 8277,15050 7941,15050 7612,14995 7321,14890 7031,14785 6790,14634 6622,14453 6454,14271 6366,14065 6366,13856 6366,13646 6454,13440 6622,13258 6790,13077 7031,12926 7321,12821 7612,12716 7941,12661 8276,12661 8612,12661 8941,12716 9232,12821 9522,12926 9763,13077 9931,13258 10099,13440 10187,13646 10187,13855 L 10187,13856 Z"/>
    </g>
   </g>
   <g className="com.sun.star.drawing.CustomShape">
    <g id="id7">
     <rect className="BoundingBox" stroke="none" fill="none" x="4073" y="11800" width="3821" height="2390"/>
     <path fill="rgb(189,188,188)" stroke="none" d="M 7892,12995 C 7892,13204 7804,13410 7636,13592 7469,13773 7228,13924 6937,14029 6647,14134 6318,14189 5983,14189 5647,14189 5318,14134 5028,14029 4737,13924 4496,13773 4329,13592 4161,13410 4073,13204 4073,12995 4073,12785 4161,12579 4329,12397 4496,12216 4737,12065 5028,11960 5318,11855 5647,11800 5982,11800 6318,11800 6647,11855 6937,11960 7228,12065 7469,12216 7636,12397 7804,12579 7892,12785 7892,12994 L 7892,12995 Z"/>
    </g>
   </g>
  </g>
  <g className="com.sun.star.drawing.ClosedBezierShape">
   <g id="id8">
    <rect className="BoundingBox" stroke="none" fill="none" x="3491" y="15873" width="2002" height="2003"/>
    <path fill="rgb(255,255,255)" stroke="none" d="M 4491,15874 C 4578,16077 4666,16279 4753,16482 4999,16447 5246,16412 5492,16377 5333,16545 5173,16714 5014,16882 5173,17045 5333,17208 5492,17371 5246,17336 4999,17301 4753,17266 4666,17469 4578,17672 4491,17875 4404,17672 4316,17469 4229,17266 3983,17301 3737,17336 3491,17371 3650,17208 3809,17045 3968,16882 3809,16714 3650,16545 3491,16377 3737,16412 3983,16447 4229,16482 4316,16279 4404,16077 4491,15874 L 4491,15874 Z"/>
   </g>
  </g>
  <g className="com.sun.star.drawing.ClosedBezierShape">
   <g id="id9">
    <rect className="BoundingBox" stroke="none" fill="none" x="6698" y="16492" width="2002" height="2002"/>
    <path fill="rgb(255,255,255)" stroke="none" d="M 7698,16492 C 7785,16695 7873,16897 7960,17100 8206,17065 8453,17030 8699,16995 8540,17163 8380,17332 8221,17500 8380,17663 8540,17826 8699,17989 8453,17954 8206,17919 7960,17884 7873,18087 7785,18290 7698,18493 7611,18290 7523,18087 7436,17884 7190,17919 6944,17954 6698,17989 6857,17826 7016,17663 7175,17500 7016,17332 6857,17163 6698,16995 6944,17030 7190,17065 7436,17100 7523,16897 7611,16695 7698,16492 L 7698,16492 Z"/>
   </g>
  </g>
 </g>
</svg>