<?xml version="1.0" encoding="UTF-8"?>
<!DOCTYPE svg PUBLIC "-//W3C//DTD SVG 1.1//EN" "http://www.w3.org/Graphics/SVG/1.1/DTD/svg11.dtd">
<svg version="1.2" width="100.02mm" height="100.02mm" viewBox="1002 9852 10002 10002" preserveAspectRatio="xMidYMid" fill-rule="evenodd" stroke-width="28.222" stroke-linejoin="round" xmlns="http://www.w3.org/2000/svg" xmlns:ooo="http://xml.openoffice.org/svg/export" xmlns:xlink="http://www.w3.org/1999/xlink" xmlns:presentation="http://sun.com/xmlns/staroffice/presentation" xmlns:smil="http://www.w3.org/2001/SMIL20/" xmlns:anim="urn:oasis:names:tc:opendocument:xmlns:animation:1.0" xml:space="preserve">
 <defs className="EmbeddedBulletChars">
  <g id="bullet-char-template-57356" transform="scale(0.00048828125,-0.00048828125)">
   <path d="M 580,1141 L 1163,571 580,0 -4,571 580,1141 Z"/>
  </g>
  <g id="bullet-char-template-57354" transform="scale(0.00048828125,-0.00048828125)">
   <path d="M 8,1128 L 1137,1128 1137,0 8,0 8,1128 Z"/>
  </g>
  <g id="bullet-char-template-10146" transform="scale(0.00048828125,-0.00048828125)">
   <path d="M 174,0 L 602,739 174,1481 1456,739 174,0 Z M 1358,739 L 309,1346 659,739 1358,739 Z"/>
  </g>
  <g id="bullet-char-template-10132" transform="scale(0.00048828125,-0.00048828125)">
   <path d="M 2015,739 L 1276,0 717,0 1260,543 174,543 174,936 1260,936 717,1481 1274,1481 2015,739 Z"/>
  </g>
  <g id="bullet-char-template-10007" transform="scale(0.00048828125,-0.00048828125)">
   <path d="M 0,-2 C -7,14 -16,27 -25,37 L 356,567 C 262,823 215,952 215,954 215,979 228,992 255,992 264,992 276,990 289,987 310,991 331,999 354,1012 L 381,999 492,748 772,1049 836,1024 860,1049 C 881,1039 901,1025 922,1006 886,937 835,863 770,784 769,783 710,716 594,584 L 774,223 C 774,196 753,168 711,139 L 727,119 C 717,90 699,76 672,76 641,76 570,178 457,381 L 164,-76 C 142,-110 111,-127 72,-127 30,-127 9,-110 8,-76 1,-67 -2,-52 -2,-32 -2,-23 -1,-13 0,-2 Z"/>
  </g>
  <g id="bullet-char-template-10004" transform="scale(0.00048828125,-0.00048828125)">
   <path d="M 285,-33 C 182,-33 111,30 74,156 52,228 41,333 41,471 41,549 55,616 82,672 116,743 169,778 240,778 293,778 328,747 346,684 L 369,508 C 377,444 397,411 428,410 L 1163,1116 C 1174,1127 1196,1133 1229,1133 1271,1133 1292,1118 1292,1087 L 1292,965 C 1292,929 1282,901 1262,881 L 442,47 C 390,-6 338,-33 285,-33 Z"/>
  </g>
  <g id="bullet-char-template-9679" transform="scale(0.00048828125,-0.00048828125)">
   <path d="M 813,0 C 632,0 489,54 383,161 276,268 223,411 223,592 223,773 276,916 383,1023 489,1130 632,1184 813,1184 992,1184 1136,1130 1245,1023 1353,916 1407,772 1407,592 1407,412 1353,268 1245,161 1136,54 992,0 813,0 Z"/>
  </g>
  <g id="bullet-char-template-8226" transform="scale(0.00048828125,-0.00048828125)">
   <path d="M 346,457 C 273,457 209,483 155,535 101,586 74,649 74,723 74,796 101,859 155,911 209,963 273,989 346,989 419,989 480,963 531,910 582,859 608,796 608,723 608,648 583,586 532,535 482,483 420,457 346,457 Z"/>
  </g>
  <g id="bullet-char-template-8211" transform="scale(0.00048828125,-0.00048828125)">
   <path d="M -4,459 L 1135,459 1135,606 -4,606 -4,459 Z"/>
  </g>
  <g id="bullet-char-template-61548" transform="scale(0.00048828125,-0.00048828125)">
   <path d="M 173,740 C 173,903 231,1043 346,1159 462,1274 601,1332 765,1332 928,1332 1067,1274 1183,1159 1299,1043 1357,903 1357,740 1357,577 1299,437 1183,322 1067,206 928,148 765,148 601,148 462,206 346,322 231,437 173,577 173,740 Z"/>
  </g>
 </defs>
 <g className="Page">
  <g className="com.sun.star.drawing.CustomShape">
   <g id="id3">
    <rect className="BoundingBox" stroke="none" fill="none" x="1002" y="9852" width="10002" height="10002"/>
    <path fill="rgb(121,144,156)" stroke="none" d="M 11003,14853 C 11003,15730 10772,16593 10333,17353 9894,18113 9263,18744 8503,19183 7743,19622 6880,19853 6003,19853 5125,19853 4262,19622 3502,19183 2742,18744 2111,18113 1672,17353 1233,16593 1002,15730 1002,14853 1002,13975 1233,13112 1672,12352 2111,11592 2742,10961 3502,10522 4262,10083 5125,9852 6002,9852 6880,9852 7743,10083 8503,10522 9263,10961 9894,11592 10333,12352 10772,13112 11003,13975 11003,14852 L 11003,14853 Z"/>
   </g>
  </g>
  <g className="Group">
   <g className="com.sun.star.drawing.CustomShape">
    <g id="id4">
     <rect className="BoundingBox" stroke="none" fill="none" x="1189" y="14434" width="9621" height="2779"/>
     <path fill="rgb(189,188,188)" stroke="none" d="M 2578,14434 L 2578,14434 C 2334,14434 2095,14498 1883,14620 1672,14742 1497,14917 1375,15129 1253,15340 1189,15579 1189,15823 L 1189,15823 1189,15823 C 1189,16067 1253,16306 1375,16518 1497,16729 1672,16904 1884,17026 2095,17148 2334,17212 2578,17212 L 9419,17212 9419,17212 C 9663,17212 9902,17148 10114,17026 10325,16904 10500,16729 10622,16518 10744,16306 10808,16067 10808,15823 L 10808,15823 10808,15823 10808,15823 C 10808,15579 10744,15340 10622,15129 10500,14917 10325,14742 10114,14620 9902,14498 9663,14434 9419,14434 L 2578,14434 Z"/>
    </g>
   </g>
   <g className="com.sun.star.drawing.CustomShape">
    <g id="id5">
     <rect className="BoundingBox" stroke="none" fill="none" x="1753" y="13766" width="3964" height="2781"/>
     <path fill="rgb(189,188,188)" stroke="none" d="M 5716,15156 C 5716,15400 5624,15640 5451,15851 5277,16062 5026,16238 4725,16360 4424,16482 4082,16546 3735,16546 3387,16546 3045,16482 2744,16360 2443,16238 2192,16062 2018,15851 1845,15640 1753,15400 1753,15156 1753,14912 1845,14672 2018,14461 2192,14250 2443,14074 2744,13952 3045,13830 3387,13766 3734,13766 4082,13766 4424,13830 4725,13952 5026,14074 5277,14250 5451,14461 5624,14672 5716,14912 5716,15156 L 5716,15156 Z"/>
    </g>
   </g>
   <g className="com.sun.star.drawing.CustomShape">
    <g id="id6">
     <rect className="BoundingBox" stroke="none" fill="none" x="6396" y="13211" width="3962" height="2779"/>
     <path fill="rgb(189,188,188)" stroke="none" d="M 10357,14600 C 10357,14844 10265,15083 10092,15295 9918,15506 9668,15681 9367,15803 9066,15925 8724,15989 8377,15989 8029,15989 7687,15925 7386,15803 7085,15681 6835,15506 6661,15295 6488,15083 6396,14844 6396,14600 6396,14356 6488,14117 6661,13906 6835,13694 7085,13519 7386,13397 7687,13275 8029,13211 8376,13211 8724,13211 9066,13275 9367,13397 9668,13519 9918,13694 10092,13905 10265,14117 10357,14356 10357,14600 L 10357,14600 Z"/>
    </g>
   </g>
   <g className="com.sun.star.drawing.CustomShape">
    <g id="id7">
     <rect className="BoundingBox" stroke="none" fill="none" x="4017" y="12211" width="3963" height="2779"/>
     <path fill="rgb(189,188,188)" stroke="none" d="M 7978,13600 C 7978,13844 7886,14083 7713,14295 7539,14506 7289,14681 6988,14803 6687,14925 6345,14989 5998,14989 5650,14989 5308,14925 5007,14803 4706,14681 4456,14506 4282,14295 4109,14083 4017,13844 4017,13600 4017,13356 4109,13117 4282,12906 4456,12694 4706,12519 5007,12397 5308,12275 5650,12211 5997,12211 6345,12211 6687,12275 6988,12397 7289,12519 7539,12694 7713,12905 7886,13117 7978,13356 7978,13600 L 7978,13600 Z"/>
    </g>
   </g>
  </g>
 </g>
</svg>