<?xml version="1.0" encoding="UTF-8"?>
<!DOCTYPE svg PUBLIC "-//W3C//DTD SVG 1.1//EN" "http://www.w3.org/Graphics/SVG/1.1/DTD/svg11.dtd">
<svg version="1.2" width="100.02mm" height="100.02mm" viewBox="1001 9851 10002 10002" preserveAspectRatio="xMidYMid" fill-rule="evenodd" stroke-width="28.222" stroke-linejoin="round" xmlns="http://www.w3.org/2000/svg" xmlns:ooo="http://xml.openoffice.org/svg/export" xmlns:xlink="http://www.w3.org/1999/xlink" xmlns:presentation="http://sun.com/xmlns/staroffice/presentation" xmlns:smil="http://www.w3.org/2001/SMIL20/" xmlns:anim="urn:oasis:names:tc:opendocument:xmlns:animation:1.0" xml:space="preserve">
 <defs className="EmbeddedBulletChars">
  <g id="bullet-char-template-57356" transform="scale(0.00048828125,-0.00048828125)">
   <path d="M 580,1141 L 1163,571 580,0 -4,571 580,1141 Z"/>
  </g>
  <g id="bullet-char-template-57354" transform="scale(0.00048828125,-0.00048828125)">
   <path d="M 8,1128 L 1137,1128 1137,0 8,0 8,1128 Z"/>
  </g>
  <g id="bullet-char-template-10146" transform="scale(0.00048828125,-0.00048828125)">
   <path d="M 174,0 L 602,739 174,1481 1456,739 174,0 Z M 1358,739 L 309,1346 659,739 1358,739 Z"/>
  </g>
  <g id="bullet-char-template-10132" transform="scale(0.00048828125,-0.00048828125)">
   <path d="M 2015,739 L 1276,0 717,0 1260,543 174,543 174,936 1260,936 717,1481 1274,1481 2015,739 Z"/>
  </g>
  <g id="bullet-char-template-10007" transform="scale(0.00048828125,-0.00048828125)">
   <path d="M 0,-2 C -7,14 -16,27 -25,37 L 356,567 C 262,823 215,952 215,954 215,979 228,992 255,992 264,992 276,990 289,987 310,991 331,999 354,1012 L 381,999 492,748 772,1049 836,1024 860,1049 C 881,1039 901,1025 922,1006 886,937 835,863 770,784 769,783 710,716 594,584 L 774,223 C 774,196 753,168 711,139 L 727,119 C 717,90 699,76 672,76 641,76 570,178 457,381 L 164,-76 C 142,-110 111,-127 72,-127 30,-127 9,-110 8,-76 1,-67 -2,-52 -2,-32 -2,-23 -1,-13 0,-2 Z"/>
  </g>
  <g id="bullet-char-template-10004" transform="scale(0.00048828125,-0.00048828125)">
   <path d="M 285,-33 C 182,-33 111,30 74,156 52,228 41,333 41,471 41,549 55,616 82,672 116,743 169,778 240,778 293,778 328,747 346,684 L 369,508 C 377,444 397,411 428,410 L 1163,1116 C 1174,1127 1196,1133 1229,1133 1271,1133 1292,1118 1292,1087 L 1292,965 C 1292,929 1282,901 1262,881 L 442,47 C 390,-6 338,-33 285,-33 Z"/>
  </g>
  <g id="bullet-char-template-9679" transform="scale(0.00048828125,-0.00048828125)">
   <path d="M 813,0 C 632,0 489,54 383,161 276,268 223,411 223,592 223,773 276,916 383,1023 489,1130 632,1184 813,1184 992,1184 1136,1130 1245,1023 1353,916 1407,772 1407,592 1407,412 1353,268 1245,161 1136,54 992,0 813,0 Z"/>
  </g>
  <g id="bullet-char-template-8226" transform="scale(0.00048828125,-0.00048828125)">
   <path d="M 346,457 C 273,457 209,483 155,535 101,586 74,649 74,723 74,796 101,859 155,911 209,963 273,989 346,989 419,989 480,963 531,910 582,859 608,796 608,723 608,648 583,586 532,535 482,483 420,457 346,457 Z"/>
  </g>
  <g id="bullet-char-template-8211" transform="scale(0.00048828125,-0.00048828125)">
   <path d="M -4,459 L 1135,459 1135,606 -4,606 -4,459 Z"/>
  </g>
  <g id="bullet-char-template-61548" transform="scale(0.00048828125,-0.00048828125)">
   <path d="M 173,740 C 173,903 231,1043 346,1159 462,1274 601,1332 765,1332 928,1332 1067,1274 1183,1159 1299,1043 1357,903 1357,740 1357,577 1299,437 1183,322 1067,206 928,148 765,148 601,148 462,206 346,322 231,437 173,577 173,740 Z"/>
  </g>
 </defs>
 <g className="Page">
  <g className="com.sun.star.drawing.CustomShape">
   <g id="id3">
    <rect className="BoundingBox" stroke="none" fill="none" x="1001" y="9851" width="10002" height="10002"/>
    <path fill="rgb(5,21,32)" stroke="none" d="M 11002,14852 C 11002,15729 10771,16592 10332,17352 9893,18112 9262,18743 8502,19182 7742,19621 6879,19852 6002,19852 5124,19852 4261,19621 3501,19182 2741,18743 2110,18112 1671,17352 1232,16592 1001,15729 1001,14852 1001,13974 1232,13111 1671,12351 2110,11591 2741,10960 3501,10521 4261,10082 5124,9851 6001,9851 6879,9851 7742,10082 8502,10521 9262,10960 9893,11591 10332,12351 10771,13111 11002,13974 11002,14851 L 11002,14852 Z"/>
   </g>
  </g>
  <g className="Group">
   <g className="com.sun.star.drawing.CustomShape">
    <g id="id4">
     <rect className="BoundingBox" stroke="none" fill="none" x="1342" y="13712" width="9281" height="2390"/>
     <path fill="rgb(189,188,188)" stroke="none" d="M 2537,13712 L 2537,13712 C 2328,13712 2122,13767 1940,13872 1759,13977 1608,14128 1503,14309 1398,14491 1343,14697 1343,14907 L 1343,14906 1343,14907 C 1343,15116 1398,15322 1503,15504 1608,15685 1759,15836 1940,15941 2122,16046 2328,16101 2538,16101 L 9427,16101 9428,16101 C 9637,16101 9843,16046 10025,15941 10206,15836 10357,15685 10462,15504 10567,15322 10622,15116 10622,14907 L 10622,14906 10622,14907 10622,14907 C 10622,14697 10567,14491 10462,14309 10357,14128 10206,13977 10025,13872 9843,13767 9637,13712 9428,13712 L 2537,13712 Z"/>
    </g>
   </g>
   <g className="com.sun.star.drawing.CustomShape">
    <g id="id5">
     <rect className="BoundingBox" stroke="none" fill="none" x="1888" y="13138" width="3824" height="2392"/>
     <path fill="rgb(189,188,188)" stroke="none" d="M 5711,14334 C 5711,14543 5623,14750 5455,14931 5287,15113 5046,15264 4755,15369 4465,15474 4135,15529 3800,15529 3464,15529 3134,15474 2844,15369 2553,15264 2312,15113 2144,14931 1976,14750 1888,14543 1888,14334 1888,14124 1976,13917 2144,13736 2312,13554 2553,13403 2844,13298 3134,13193 3464,13138 3799,13138 4135,13138 4465,13193 4755,13298 5046,13403 5287,13554 5455,13736 5623,13917 5711,14124 5711,14333 L 5711,14334 Z"/>
    </g>
   </g>
   <g className="com.sun.star.drawing.CustomShape">
    <g id="id6">
     <rect className="BoundingBox" stroke="none" fill="none" x="6365" y="12661" width="3823" height="2390"/>
     <path fill="rgb(189,188,188)" stroke="none" d="M 10187,13856 C 10187,14065 10099,14271 9931,14453 9763,14634 9522,14785 9232,14890 8941,14995 8612,15050 8277,15050 7941,15050 7612,14995 7321,14890 7031,14785 6790,14634 6622,14453 6454,14271 6366,14065 6366,13856 6366,13646 6454,13440 6622,13258 6790,13077 7031,12926 7321,12821 7612,12716 7941,12661 8276,12661 8612,12661 8941,12716 9232,12821 9522,12926 9763,13077 9931,13258 10099,13440 10187,13646 10187,13855 L 10187,13856 Z"/>
    </g>
   </g>
   <g className="com.sun.star.drawing.CustomShape">
    <g id="id7">
     <rect className="BoundingBox" stroke="none" fill="none" x="4073" y="11800" width="3821" height="2390"/>
     <path fill="rgb(189,188,188)" stroke="none" d="M 7892,12995 C 7892,13204 7804,13410 7636,13592 7469,13773 7228,13924 6937,14029 6647,14134 6318,14189 5983,14189 5647,14189 5318,14134 5028,14029 4737,13924 4496,13773 4329,13592 4161,13410 4073,13204 4073,12995 4073,12785 4161,12579 4329,12397 4496,12216 4737,12065 5028,11960 5318,11855 5647,11800 5982,11800 6318,11800 6647,11855 6937,11960 7228,12065 7469,12216 7636,12397 7804,12579 7892,12785 7892,12994 L 7892,12995 Z"/>
    </g>
   </g>
  </g>
  <g className="Group">
   <g className="com.sun.star.drawing.CustomShape">
    <g id="id8">
     <rect className="BoundingBox" stroke="none" fill="none" x="3471" y="16299" width="702" height="702"/>
     <path fill="rgb(102,199,249)" stroke="none" d="M 4172,16650 C 4172,16711 4156,16771 4125,16825 4094,16878 4050,16922 3997,16953 3943,16984 3883,17000 3822,17000 3760,17000 3700,16984 3646,16953 3593,16922 3549,16878 3518,16825 3487,16771 3471,16711 3471,16650 3471,16588 3487,16528 3518,16474 3549,16421 3593,16377 3646,16346 3700,16315 3760,16299 3822,16299 3883,16299 3943,16315 3997,16346 4050,16377 4094,16421 4125,16474 4156,16528 4172,16588 4172,16650 L 4172,16650 Z"/>
    </g>
   </g>
   <g className="com.sun.star.drawing.CustomShape">
    <g id="id9">
     <rect className="BoundingBox" stroke="none" fill="none" x="4572" y="16800" width="702" height="703"/>
     <path fill="rgb(102,199,249)" stroke="none" d="M 5273,17151 C 5273,17212 5257,17272 5226,17326 5195,17379 5151,17423 5098,17454 5044,17485 4984,17501 4923,17501 4861,17501 4801,17485 4747,17454 4694,17423 4650,17379 4619,17326 4588,17272 4572,17212 4572,17151 4572,17089 4588,17029 4619,16975 4650,16922 4694,16878 4747,16847 4801,16816 4861,16800 4923,16800 4984,16800 5044,16816 5098,16847 5151,16878 5195,16922 5226,16975 5257,17029 5273,17089 5273,17151 L 5273,17151 Z"/>
    </g>
   </g>
   <g className="com.sun.star.drawing.CustomShape">
    <g id="id10">
     <rect className="BoundingBox" stroke="none" fill="none" x="5873" y="16401" width="702" height="702"/>
     <path fill="rgb(102,199,249)" stroke="none" d="M 6574,16752 C 6574,16813 6558,16873 6527,16927 6496,16980 6452,17024 6399,17055 6345,17086 6285,17102 6224,17102 6162,17102 6102,17086 6048,17055 5995,17024 5951,16980 5920,16927 5889,16873 5873,16813 5873,16752 5873,16690 5889,16630 5920,16576 5951,16523 5995,16479 6048,16448 6102,16417 6162,16401 6224,16401 6285,16401 6345,16417 6399,16448 6452,16479 6496,16523 6527,16576 6558,16630 6574,16690 6574,16752 L 6574,16752 Z"/>
    </g>
   </g>
   <g className="com.sun.star.drawing.CustomShape">
    <g id="id11">
     <rect className="BoundingBox" stroke="none" fill="none" x="6874" y="17102" width="702" height="702"/>
     <path fill="rgb(102,199,249)" stroke="none" d="M 7575,17453 C 7575,17514 7559,17574 7528,17628 7497,17681 7453,17725 7400,17756 7346,17787 7286,17803 7225,17803 7163,17803 7103,17787 7049,17756 6996,17725 6952,17681 6921,17628 6890,17574 6874,17514 6874,17453 6874,17391 6890,17331 6921,17277 6952,17224 6996,17180 7049,17149 7103,17118 7163,17102 7225,17102 7286,17102 7346,17118 7400,17149 7453,17180 7497,17224 7528,17277 7559,17331 7575,17391 7575,17453 L 7575,17453 Z"/>
    </g>
   </g>
   <g className="com.sun.star.drawing.CustomShape">
    <g id="id12">
     <rect className="BoundingBox" stroke="none" fill="none" x="7875" y="16403" width="702" height="703"/>
     <path fill="rgb(102,199,249)" stroke="none" d="M 8576,16754 C 8576,16815 8560,16875 8529,16929 8498,16982 8454,17026 8401,17057 8347,17088 8287,17104 8226,17104 8164,17104 8104,17088 8050,17057 7997,17026 7953,16982 7922,16929 7891,16875 7875,16815 7875,16754 7875,16692 7891,16632 7922,16578 7953,16525 7997,16481 8050,16450 8104,16419 8164,16403 8226,16403 8287,16403 8347,16419 8401,16450 8454,16481 8498,16525 8529,16578 8560,16632 8576,16692 8576,16754 L 8576,16754 Z"/>
    </g>
   </g>
  </g>
 </g>
</svg>