<?xml version="1.0" encoding="UTF-8"?>
<!DOCTYPE svg PUBLIC "-//W3C//DTD SVG 1.1//EN" "http://www.w3.org/Graphics/SVG/1.1/DTD/svg11.dtd">
<svg version="1.2" width="100.02mm" height="100.02mm" viewBox="1001 9851 10002 10002" preserveAspectRatio="xMidYMid" fill-rule="evenodd" stroke-width="28.222" stroke-linejoin="round" xmlns="http://www.w3.org/2000/svg" xmlns:ooo="http://xml.openoffice.org/svg/export" xmlns:xlink="http://www.w3.org/1999/xlink" xmlns:presentation="http://sun.com/xmlns/staroffice/presentation" xmlns:smil="http://www.w3.org/2001/SMIL20/" xmlns:anim="urn:oasis:names:tc:opendocument:xmlns:animation:1.0" xml:space="preserve">
 <defs className="EmbeddedBulletChars">
  <g id="bullet-char-template-57356" transform="scale(0.00048828125,-0.00048828125)">
   <path d="M 580,1141 L 1163,571 580,0 -4,571 580,1141 Z"/>
  </g>
  <g id="bullet-char-template-57354" transform="scale(0.00048828125,-0.00048828125)">
   <path d="M 8,1128 L 1137,1128 1137,0 8,0 8,1128 Z"/>
  </g>
  <g id="bullet-char-template-10146" transform="scale(0.00048828125,-0.00048828125)">
   <path d="M 174,0 L 602,739 174,1481 1456,739 174,0 Z M 1358,739 L 309,1346 659,739 1358,739 Z"/>
  </g>
  <g id="bullet-char-template-10132" transform="scale(0.00048828125,-0.00048828125)">
   <path d="M 2015,739 L 1276,0 717,0 1260,543 174,543 174,936 1260,936 717,1481 1274,1481 2015,739 Z"/>
  </g>
  <g id="bullet-char-template-10007" transform="scale(0.00048828125,-0.00048828125)">
   <path d="M 0,-2 C -7,14 -16,27 -25,37 L 356,567 C 262,823 215,952 215,954 215,979 228,992 255,992 264,992 276,990 289,987 310,991 331,999 354,1012 L 381,999 492,748 772,1049 836,1024 860,1049 C 881,1039 901,1025 922,1006 886,937 835,863 770,784 769,783 710,716 594,584 L 774,223 C 774,196 753,168 711,139 L 727,119 C 717,90 699,76 672,76 641,76 570,178 457,381 L 164,-76 C 142,-110 111,-127 72,-127 30,-127 9,-110 8,-76 1,-67 -2,-52 -2,-32 -2,-23 -1,-13 0,-2 Z"/>
  </g>
  <g id="bullet-char-template-10004" transform="scale(0.00048828125,-0.00048828125)">
   <path d="M 285,-33 C 182,-33 111,30 74,156 52,228 41,333 41,471 41,549 55,616 82,672 116,743 169,778 240,778 293,778 328,747 346,684 L 369,508 C 377,444 397,411 428,410 L 1163,1116 C 1174,1127 1196,1133 1229,1133 1271,1133 1292,1118 1292,1087 L 1292,965 C 1292,929 1282,901 1262,881 L 442,47 C 390,-6 338,-33 285,-33 Z"/>
  </g>
  <g id="bullet-char-template-9679" transform="scale(0.00048828125,-0.00048828125)">
   <path d="M 813,0 C 632,0 489,54 383,161 276,268 223,411 223,592 223,773 276,916 383,1023 489,1130 632,1184 813,1184 992,1184 1136,1130 1245,1023 1353,916 1407,772 1407,592 1407,412 1353,268 1245,161 1136,54 992,0 813,0 Z"/>
  </g>
  <g id="bullet-char-template-8226" transform="scale(0.00048828125,-0.00048828125)">
   <path d="M 346,457 C 273,457 209,483 155,535 101,586 74,649 74,723 74,796 101,859 155,911 209,963 273,989 346,989 419,989 480,963 531,910 582,859 608,796 608,723 608,648 583,586 532,535 482,483 420,457 346,457 Z"/>
  </g>
  <g id="bullet-char-template-8211" transform="scale(0.00048828125,-0.00048828125)">
   <path d="M -4,459 L 1135,459 1135,606 -4,606 -4,459 Z"/>
  </g>
  <g id="bullet-char-template-61548" transform="scale(0.00048828125,-0.00048828125)">
   <path d="M 173,740 C 173,903 231,1043 346,1159 462,1274 601,1332 765,1332 928,1332 1067,1274 1183,1159 1299,1043 1357,903 1357,740 1357,577 1299,437 1183,322 1067,206 928,148 765,148 601,148 462,206 346,322 231,437 173,577 173,740 Z"/>
  </g>
 </defs>
 <g className="Page">
  <g className="com.sun.star.drawing.CustomShape">
   <g id="id3">
    <rect className="BoundingBox" stroke="none" fill="none" x="1001" y="9851" width="10002" height="10002"/>
    <path fill="rgb(5,21,32)" stroke="none" d="M 11002,14852 C 11002,15729 10771,16592 10332,17352 9893,18112 9262,18743 8502,19182 7742,19621 6879,19852 6002,19852 5124,19852 4261,19621 3501,19182 2741,18743 2110,18112 1671,17352 1232,16592 1001,15729 1001,14852 1001,13974 1232,13111 1671,12351 2110,11591 2741,10960 3501,10521 4261,10082 5124,9851 6001,9851 6879,9851 7742,10082 8502,10521 9262,10960 9893,11591 10332,12351 10771,13111 11002,13974 11002,14851 L 11002,14852 Z"/>
   </g>
  </g>
  <g className="Group">
   <g className="com.sun.star.drawing.CustomShape">
    <g id="id4">
     <rect className="BoundingBox" stroke="none" fill="none" x="1342" y="13712" width="9281" height="2390"/>
     <path fill="rgb(189,188,188)" stroke="none" d="M 2537,13712 L 2537,13712 C 2328,13712 2122,13767 1940,13872 1759,13977 1608,14128 1503,14309 1398,14491 1343,14697 1343,14907 L 1343,14906 1343,14907 C 1343,15116 1398,15322 1503,15504 1608,15685 1759,15836 1940,15941 2122,16046 2328,16101 2538,16101 L 9427,16101 9428,16101 C 9637,16101 9843,16046 10025,15941 10206,15836 10357,15685 10462,15504 10567,15322 10622,15116 10622,14907 L 10622,14906 10622,14907 10622,14907 C 10622,14697 10567,14491 10462,14309 10357,14128 10206,13977 10025,13872 9843,13767 9637,13712 9428,13712 L 2537,13712 Z"/>
    </g>
   </g>
   <g className="com.sun.star.drawing.CustomShape">
    <g id="id5">
     <rect className="BoundingBox" stroke="none" fill="none" x="1888" y="13138" width="3824" height="2392"/>
     <path fill="rgb(189,188,188)" stroke="none" d="M 5711,14334 C 5711,14543 5623,14750 5455,14931 5287,15113 5046,15264 4755,15369 4465,15474 4135,15529 3800,15529 3464,15529 3134,15474 2844,15369 2553,15264 2312,15113 2144,14931 1976,14750 1888,14543 1888,14334 1888,14124 1976,13917 2144,13736 2312,13554 2553,13403 2844,13298 3134,13193 3464,13138 3799,13138 4135,13138 4465,13193 4755,13298 5046,13403 5287,13554 5455,13736 5623,13917 5711,14124 5711,14333 L 5711,14334 Z"/>
    </g>
   </g>
   <g className="com.sun.star.drawing.CustomShape">
    <g id="id6">
     <rect className="BoundingBox" stroke="none" fill="none" x="6365" y="12661" width="3823" height="2390"/>
     <path fill="rgb(189,188,188)" stroke="none" d="M 10187,13856 C 10187,14065 10099,14271 9931,14453 9763,14634 9522,14785 9232,14890 8941,14995 8612,15050 8277,15050 7941,15050 7612,14995 7321,14890 7031,14785 6790,14634 6622,14453 6454,14271 6366,14065 6366,13856 6366,13646 6454,13440 6622,13258 6790,13077 7031,12926 7321,12821 7612,12716 7941,12661 8276,12661 8612,12661 8941,12716 9232,12821 9522,12926 9763,13077 9931,13258 10099,13440 10187,13646 10187,13855 L 10187,13856 Z"/>
    </g>
   </g>
   <g className="com.sun.star.drawing.CustomShape">
    <g id="id7">
     <rect className="BoundingBox" stroke="none" fill="none" x="4073" y="11800" width="3821" height="2390"/>
     <path fill="rgb(189,188,188)" stroke="none" d="M 7892,12995 C 7892,13204 7804,13410 7636,13592 7469,13773 7228,13924 6937,14029 6647,14134 6318,14189 5983,14189 5647,14189 5318,14134 5028,14029 4737,13924 4496,13773 4329,13592 4161,13410 4073,13204 4073,12995 4073,12785 4161,12579 4329,12397 4496,12216 4737,12065 5028,11960 5318,11855 5647,11800 5982,11800 6318,11800 6647,11855 6937,11960 7228,12065 7469,12216 7636,12397 7804,12579 7892,12785 7892,12994 L 7892,12995 Z"/>
    </g>
   </g>
  </g>
  <g className="com.sun.star.drawing.ClosedBezierShape">
   <g id="id8">
    <rect className="BoundingBox" stroke="none" fill="none" x="5803" y="17256" width="1450" height="1921"/>
    <path fill="rgb(102,199,249)" stroke="none" d="M 6502,17272 C 6493,17315 6484,17357 6475,17399 6463,17437 6451,17476 6439,17514 6424,17549 6410,17584 6395,17618 6378,17650 6361,17682 6345,17714 6326,17743 6308,17772 6289,17801 6270,17828 6250,17855 6231,17882 6190,17931 6150,17980 6110,18029 6071,18075 6033,18121 5995,18166 5977,18189 5960,18211 5943,18234 5927,18258 5912,18281 5897,18304 5884,18328 5871,18352 5858,18376 5849,18402 5839,18427 5829,18453 5823,18480 5817,18507 5810,18535 5808,18564 5806,18594 5804,18623 5805,18642 5806,18661 5808,18680 5811,18698 5815,18716 5819,18735 5825,18752 5831,18770 5837,18788 5845,18805 5853,18822 5862,18839 5872,18855 5882,18871 5893,18887 5905,18902 5917,18917 5930,18932 5944,18947 5958,18961 5972,18975 5987,18988 6003,19001 6019,19014 6036,19026 6053,19038 6070,19050 6089,19060 6108,19071 6126,19082 6146,19091 6166,19100 6186,19109 6207,19117 6228,19125 6249,19133 6271,19139 6293,19145 6315,19151 6338,19156 6361,19160 6384,19165 6408,19167 6431,19170 6455,19173 6479,19174 6504,19175 6528,19176 6552,19175 6577,19174 6601,19173 6624,19170 6648,19167 6672,19165 6695,19160 6718,19156 6741,19151 6763,19145 6785,19139 6807,19132 6828,19125 6849,19117 6870,19109 6890,19100 6910,19091 6930,19082 6948,19071 6967,19060 6986,19050 7003,19038 7020,19026 7037,19014 7053,19001 7069,18988 7084,18975 7098,18961 7113,18946 7127,18932 7139,18917 7151,18902 7163,18887 7173,18871 7184,18855 7194,18838 7202,18822 7211,18805 7219,18788 7225,18770 7231,18752 7237,18735 7241,18716 7244,18698 7248,18680 7249,18661 7251,18642 7252,18623 7250,18594 7248,18564 7245,18535 7239,18507 7233,18480 7227,18453 7217,18427 7207,18402 7197,18376 7185,18352 7172,18328 7159,18304 7144,18281 7129,18258 7113,18234 7096,18211 7079,18189 7062,18166 7023,18121 6984,18075 6946,18029 6906,17980 6865,17931 6825,17882 6806,17855 6786,17828 6767,17801 6748,17772 6730,17743 6712,17714 6695,17682 6678,17650 6661,17618 6646,17584 6632,17549 6617,17514 6605,17476 6593,17437 6581,17399 6572,17357 6563,17315 6554,17272 6554,17272 6554,17271 6554,17270 6554,17270 6553,17269 6553,17269 6553,17268 6553,17267 6552,17267 6552,17266 6551,17266 6551,17265 6551,17265 6550,17264 6550,17264 6549,17263 6549,17263 6548,17263 6548,17262 6547,17262 6547,17261 6546,17261 6546,17261 6545,17260 6544,17260 6543,17259 6541,17259 6540,17258 6538,17258 6537,17257 6536,17257 6534,17257 6533,17256 6531,17256 6530,17256 6528,17256 6527,17256 6525,17256 6523,17256 6522,17257 6521,17257 6519,17257 6518,17258 6516,17258 6515,17259 6514,17259 6512,17260 6511,17260 6510,17261 6510,17261 6509,17261 6509,17262 6508,17262 6508,17263 6507,17263 6507,17263 6506,17264 6506,17264 6505,17265 6505,17265 6505,17266 6504,17266 6504,17267 6504,17267 6503,17268 6503,17269 6503,17269 6503,17270 6502,17270 6502,17271 6502,17272 6502,17272 Z"/>
   </g>
  </g>
  <g className="Group">
   <g className="com.sun.star.drawing.ClosedBezierShape">
    <g id="id9">
     <rect className="BoundingBox" stroke="none" fill="none" x="5962" y="11295" width="4020" height="3751"/>
     <path fill="rgb(255,255,255)" stroke="none" d="M 7635,11653 L 6173,14308 6173,14308 6173,14308 C 6139,14367 6121,14433 6121,14501 6121,14568 6139,14634 6173,14693 6206,14751 6255,14800 6313,14834 6372,14867 6438,14885 6505,14885 6506,14885 6508,14885 6509,14885 L 9434,14885 9434,14885 C 9435,14885 9436,14885 9437,14885 9505,14885 9571,14867 9629,14834 9688,14800 9736,14751 9770,14693 9803,14634 9821,14568 9821,14501 9821,14433 9803,14367 9770,14308 L 9770,14308 8307,11653 8307,11653 C 8306,11651 8305,11649 8304,11647 8270,11589 8221,11540 8163,11506 8105,11472 8039,11455 7971,11455 7904,11455 7838,11472 7779,11506 7721,11540 7672,11589 7639,11647 7638,11649 7636,11651 7635,11653 Z"/>
     <path fill="none" stroke="rgb(224,27,36)" stroke-width="318" stroke-linejoin="round" stroke-linecap="round" d="M 7635,11653 L 6173,14308 6173,14308 6173,14308 C 6139,14367 6121,14433 6121,14501 6121,14568 6139,14634 6173,14693 6206,14751 6255,14800 6313,14834 6372,14867 6438,14885 6505,14885 L 6509,14885 9434,14885 9434,14885 9437,14885 C 9505,14885 9571,14867 9629,14834 9688,14800 9736,14751 9770,14693 9803,14634 9821,14568 9821,14501 9821,14433 9803,14367 9770,14308 L 9770,14308 8307,11653 8307,11653 8304,11647 C 8270,11589 8221,11540 8163,11506 8105,11472 8039,11455 7971,11455 7904,11455 7838,11472 7779,11506 7721,11540 7672,11589 7639,11647 L 7635,11653 Z"/>
    </g>
   </g>
   <g className="Graphic">
    <g id="id10">
     <rect className="BoundingBox" stroke="none" fill="none" x="6827" y="12492" width="2289" height="2292"/>
     <path fill="none" stroke="rgb(0,0,0)" stroke-width="143" stroke-linejoin="round" stroke-linecap="round" d="M 7971,14114 L 7685,14400"/>
     <path fill="none" stroke="rgb(0,0,0)" stroke-width="143" stroke-linejoin="round" stroke-linecap="round" d="M 7971,14114 L 8257,14400"/>
     <path fill="none" stroke="rgb(0,0,0)" stroke-width="143" stroke-linejoin="round" stroke-linecap="round" d="M 7971,14114 L 7971,13638"/>
     <path fill="none" stroke="rgb(0,0,0)" stroke-width="143" stroke-linejoin="round" stroke-linecap="round" d="M 7971,14114 L 7971,14496"/>
     <path fill="none" stroke="rgb(0,0,0)" stroke-width="143" stroke-linejoin="round" stroke-linecap="round" d="M 7971,13161 L 7685,12875"/>
     <path fill="none" stroke="rgb(0,0,0)" stroke-width="143" stroke-linejoin="round" stroke-linecap="round" d="M 7971,13161 L 8257,12875"/>
     <path fill="none" stroke="rgb(0,0,0)" stroke-width="143" stroke-linejoin="round" stroke-linecap="round" d="M 7971,13161 L 7971,13638"/>
     <path fill="none" stroke="rgb(0,0,0)" stroke-width="143" stroke-linejoin="round" stroke-linecap="round" d="M 7971,13161 L 7971,12779"/>
     <path fill="none" stroke="rgb(0,0,0)" stroke-width="143" stroke-linejoin="round" stroke-linecap="round" d="M 7971,13638 L 7559,13399"/>
     <path fill="none" stroke="rgb(0,0,0)" stroke-width="143" stroke-linejoin="round" stroke-linecap="round" d="M 7971,13638 L 8383,13876"/>
     <path fill="none" stroke="rgb(0,0,0)" stroke-width="143" stroke-linejoin="round" stroke-linecap="round" d="M 7971,13638 L 7559,13876"/>
     <path fill="none" stroke="rgb(0,0,0)" stroke-width="143" stroke-linejoin="round" stroke-linecap="round" d="M 7971,13638 L 8383,13399"/>
     <path fill="none" stroke="rgb(0,0,0)" stroke-width="143" stroke-linejoin="round" stroke-linecap="round" d="M 8383,13876 L 8488,14267"/>
     <path fill="none" stroke="rgb(0,0,0)" stroke-width="143" stroke-linejoin="round" stroke-linecap="round" d="M 8383,13876 L 8773,13771"/>
     <path fill="none" stroke="rgb(0,0,0)" stroke-width="143" stroke-linejoin="round" stroke-linecap="round" d="M 8383,13876 L 8713,14067"/>
     <path fill="none" stroke="rgb(0,0,0)" stroke-width="143" stroke-linejoin="round" stroke-linecap="round" d="M 7559,13399 L 7169,13504"/>
     <path fill="none" stroke="rgb(0,0,0)" stroke-width="143" stroke-linejoin="round" stroke-linecap="round" d="M 7559,13399 L 7454,13008"/>
     <path fill="none" stroke="rgb(0,0,0)" stroke-width="143" stroke-linejoin="round" stroke-linecap="round" d="M 7559,13399 L 7229,13208"/>
     <path fill="none" stroke="rgb(0,0,0)" stroke-width="143" stroke-linejoin="round" stroke-linecap="round" d="M 8383,13399 L 8773,13504"/>
     <path fill="none" stroke="rgb(0,0,0)" stroke-width="143" stroke-linejoin="round" stroke-linecap="round" d="M 8383,13399 L 8488,13008"/>
     <path fill="none" stroke="rgb(0,0,0)" stroke-width="143" stroke-linejoin="round" stroke-linecap="round" d="M 8383,13399 L 8713,13208"/>
     <path fill="none" stroke="rgb(0,0,0)" stroke-width="143" stroke-linejoin="round" stroke-linecap="round" d="M 7559,13876 L 7454,14267"/>
     <path fill="none" stroke="rgb(0,0,0)" stroke-width="143" stroke-linejoin="round" stroke-linecap="round" d="M 7559,13876 L 7169,13771"/>
     <path fill="none" stroke="rgb(0,0,0)" stroke-width="143" stroke-linejoin="round" stroke-linecap="round" d="M 7559,13876 L 7229,14067"/>
    </g>
   </g>
  </g>
 </g>
</svg>