<?xml version="1.0" encoding="UTF-8"?>
<!DOCTYPE svg PUBLIC "-//W3C//DTD SVG 1.1//EN" "http://www.w3.org/Graphics/SVG/1.1/DTD/svg11.dtd">
<svg version="1.2" width="100.02mm" height="100.02mm" viewBox="1001 9851 10002 10002" preserveAspectRatio="xMidYMid" fill-rule="evenodd" stroke-width="28.222" stroke-linejoin="round" xmlns="http://www.w3.org/2000/svg" xmlns:ooo="http://xml.openoffice.org/svg/export" xmlns:xlink="http://www.w3.org/1999/xlink" xmlns:presentation="http://sun.com/xmlns/staroffice/presentation" xmlns:smil="http://www.w3.org/2001/SMIL20/" xmlns:anim="urn:oasis:names:tc:opendocument:xmlns:animation:1.0" xml:space="preserve">
 <defs className="EmbeddedBulletChars">
  <g id="bullet-char-template-57356" transform="scale(0.00048828125,-0.00048828125)">
   <path d="M 580,1141 L 1163,571 580,0 -4,571 580,1141 Z"/>
  </g>
  <g id="bullet-char-template-57354" transform="scale(0.00048828125,-0.00048828125)">
   <path d="M 8,1128 L 1137,1128 1137,0 8,0 8,1128 Z"/>
  </g>
  <g id="bullet-char-template-10146" transform="scale(0.00048828125,-0.00048828125)">
   <path d="M 174,0 L 602,739 174,1481 1456,739 174,0 Z M 1358,739 L 309,1346 659,739 1358,739 Z"/>
  </g>
  <g id="bullet-char-template-10132" transform="scale(0.00048828125,-0.00048828125)">
   <path d="M 2015,739 L 1276,0 717,0 1260,543 174,543 174,936 1260,936 717,1481 1274,1481 2015,739 Z"/>
  </g>
  <g id="bullet-char-template-10007" transform="scale(0.00048828125,-0.00048828125)">
   <path d="M 0,-2 C -7,14 -16,27 -25,37 L 356,567 C 262,823 215,952 215,954 215,979 228,992 255,992 264,992 276,990 289,987 310,991 331,999 354,1012 L 381,999 492,748 772,1049 836,1024 860,1049 C 881,1039 901,1025 922,1006 886,937 835,863 770,784 769,783 710,716 594,584 L 774,223 C 774,196 753,168 711,139 L 727,119 C 717,90 699,76 672,76 641,76 570,178 457,381 L 164,-76 C 142,-110 111,-127 72,-127 30,-127 9,-110 8,-76 1,-67 -2,-52 -2,-32 -2,-23 -1,-13 0,-2 Z"/>
  </g>
  <g id="bullet-char-template-10004" transform="scale(0.00048828125,-0.00048828125)">
   <path d="M 285,-33 C 182,-33 111,30 74,156 52,228 41,333 41,471 41,549 55,616 82,672 116,743 169,778 240,778 293,778 328,747 346,684 L 369,508 C 377,444 397,411 428,410 L 1163,1116 C 1174,1127 1196,1133 1229,1133 1271,1133 1292,1118 1292,1087 L 1292,965 C 1292,929 1282,901 1262,881 L 442,47 C 390,-6 338,-33 285,-33 Z"/>
  </g>
  <g id="bullet-char-template-9679" transform="scale(0.00048828125,-0.00048828125)">
   <path d="M 813,0 C 632,0 489,54 383,161 276,268 223,411 223,592 223,773 276,916 383,1023 489,1130 632,1184 813,1184 992,1184 1136,1130 1245,1023 1353,916 1407,772 1407,592 1407,412 1353,268 1245,161 1136,54 992,0 813,0 Z"/>
  </g>
  <g id="bullet-char-template-8226" transform="scale(0.00048828125,-0.00048828125)">
   <path d="M 346,457 C 273,457 209,483 155,535 101,586 74,649 74,723 74,796 101,859 155,911 209,963 273,989 346,989 419,989 480,963 531,910 582,859 608,796 608,723 608,648 583,586 532,535 482,483 420,457 346,457 Z"/>
  </g>
  <g id="bullet-char-template-8211" transform="scale(0.00048828125,-0.00048828125)">
   <path d="M -4,459 L 1135,459 1135,606 -4,606 -4,459 Z"/>
  </g>
  <g id="bullet-char-template-61548" transform="scale(0.00048828125,-0.00048828125)">
   <path d="M 173,740 C 173,903 231,1043 346,1159 462,1274 601,1332 765,1332 928,1332 1067,1274 1183,1159 1299,1043 1357,903 1357,740 1357,577 1299,437 1183,322 1067,206 928,148 765,148 601,148 462,206 346,322 231,437 173,577 173,740 Z"/>
  </g>
 </defs>
 <g className="Page">
  <g className="com.sun.star.drawing.CustomShape">
   <g id="id3">
    <rect className="BoundingBox" stroke="none" fill="none" x="1001" y="9851" width="10002" height="10002"/>
    <path fill="rgb(5,21,32)" stroke="none" d="M 11002,14852 C 11002,15729 10771,16592 10332,17352 9893,18112 9262,18743 8502,19182 7742,19621 6879,19852 6002,19852 5124,19852 4261,19621 3501,19182 2741,18743 2110,18112 1671,17352 1232,16592 1001,15729 1001,14852 1001,13974 1232,13111 1671,12351 2110,11591 2741,10960 3501,10521 4261,10082 5124,9851 6001,9851 6879,9851 7742,10082 8502,10521 9262,10960 9893,11591 10332,12351 10771,13111 11002,13974 11002,14851 L 11002,14852 Z"/>
   </g>
  </g>
  <g className="Group">
   <g className="com.sun.star.drawing.CustomShape">
    <g id="id4">
     <rect className="BoundingBox" stroke="none" fill="none" x="1342" y="13712" width="9281" height="2390"/>
     <path fill="rgb(189,188,188)" stroke="none" d="M 2537,13712 L 2537,13712 C 2328,13712 2122,13767 1940,13872 1759,13977 1608,14128 1503,14309 1398,14491 1343,14697 1343,14907 L 1343,14906 1343,14907 C 1343,15116 1398,15322 1503,15504 1608,15685 1759,15836 1940,15941 2122,16046 2328,16101 2538,16101 L 9427,16101 9428,16101 C 9637,16101 9843,16046 10025,15941 10206,15836 10357,15685 10462,15504 10567,15322 10622,15116 10622,14907 L 10622,14906 10622,14907 10622,14907 C 10622,14697 10567,14491 10462,14309 10357,14128 10206,13977 10025,13872 9843,13767 9637,13712 9428,13712 L 2537,13712 Z"/>
    </g>
   </g>
   <g className="com.sun.star.drawing.CustomShape">
    <g id="id5">
     <rect className="BoundingBox" stroke="none" fill="none" x="1888" y="13138" width="3824" height="2392"/>
     <path fill="rgb(189,188,188)" stroke="none" d="M 5711,14334 C 5711,14543 5623,14750 5455,14931 5287,15113 5046,15264 4755,15369 4465,15474 4135,15529 3800,15529 3464,15529 3134,15474 2844,15369 2553,15264 2312,15113 2144,14931 1976,14750 1888,14543 1888,14334 1888,14124 1976,13917 2144,13736 2312,13554 2553,13403 2844,13298 3134,13193 3464,13138 3799,13138 4135,13138 4465,13193 4755,13298 5046,13403 5287,13554 5455,13736 5623,13917 5711,14124 5711,14333 L 5711,14334 Z"/>
    </g>
   </g>
   <g className="com.sun.star.drawing.CustomShape">
    <g id="id6">
     <rect className="BoundingBox" stroke="none" fill="none" x="6365" y="12661" width="3823" height="2390"/>
     <path fill="rgb(189,188,188)" stroke="none" d="M 10187,13856 C 10187,14065 10099,14271 9931,14453 9763,14634 9522,14785 9232,14890 8941,14995 8612,15050 8277,15050 7941,15050 7612,14995 7321,14890 7031,14785 6790,14634 6622,14453 6454,14271 6366,14065 6366,13856 6366,13646 6454,13440 6622,13258 6790,13077 7031,12926 7321,12821 7612,12716 7941,12661 8276,12661 8612,12661 8941,12716 9232,12821 9522,12926 9763,13077 9931,13258 10099,13440 10187,13646 10187,13855 L 10187,13856 Z"/>
    </g>
   </g>
   <g className="com.sun.star.drawing.CustomShape">
    <g id="id7">
     <rect className="BoundingBox" stroke="none" fill="none" x="4073" y="11800" width="3821" height="2390"/>
     <path fill="rgb(189,188,188)" stroke="none" d="M 7892,12995 C 7892,13204 7804,13410 7636,13592 7469,13773 7228,13924 6937,14029 6647,14134 6318,14189 5983,14189 5647,14189 5318,14134 5028,14029 4737,13924 4496,13773 4329,13592 4161,13410 4073,13204 4073,12995 4073,12785 4161,12579 4329,12397 4496,12216 4737,12065 5028,11960 5318,11855 5647,11800 5982,11800 6318,11800 6647,11855 6937,11960 7228,12065 7469,12216 7636,12397 7804,12579 7892,12785 7892,12994 L 7892,12995 Z"/>
    </g>
   </g>
  </g>
  <g className="com.sun.star.drawing.CustomShape">
   <g id="id8">
    <rect className="BoundingBox" stroke="none" fill="none" x="4587" y="12138" width="2939" height="5819"/>
    <path fill="rgb(255,213,80)" stroke="none" d="M 7366,13260 L 5453,14325 6280,12298 5582,12478 4746,15277 6578,14247 5780,16368 5311,15772 5505,17796 6894,16700 6220,16613 7366,13260 7366,13260 7366,13260 Z"/>
    <path fill="none" stroke="rgb(255,213,80)" stroke-width="318" stroke-linejoin="round" d="M 7366,13260 L 5453,14325 6280,12298 5582,12478 4746,15277 6578,14247 5780,16368 5311,15772 5505,17796 6894,16700 6220,16613 7366,13260 7366,13260 7366,13260 Z"/>
   </g>
  </g>
  <g className="com.sun.star.drawing.ClosedBezierShape">
   <g id="id9">
    <rect className="BoundingBox" stroke="none" fill="none" x="3765" y="15649" width="1450" height="1921"/>
    <path fill="rgb(102,199,249)" stroke="none" d="M 4464,15665 C 4455,15708 4446,15750 4437,15792 4425,15830 4413,15869 4401,15907 4386,15942 4372,15977 4357,16011 4340,16043 4323,16075 4307,16107 4288,16136 4270,16165 4251,16194 4232,16221 4212,16248 4193,16275 4152,16324 4112,16373 4072,16422 4033,16468 3995,16514 3957,16559 3939,16582 3922,16604 3905,16627 3889,16651 3874,16674 3859,16697 3846,16721 3833,16745 3820,16769 3811,16795 3801,16820 3791,16846 3785,16873 3779,16900 3772,16928 3770,16957 3768,16987 3766,17016 3767,17035 3768,17054 3770,17073 3773,17091 3777,17109 3781,17128 3787,17145 3793,17163 3799,17181 3807,17198 3815,17215 3824,17232 3834,17248 3844,17264 3855,17280 3867,17295 3879,17310 3892,17325 3906,17340 3920,17354 3934,17368 3949,17381 3965,17394 3981,17407 3998,17419 4015,17431 4032,17443 4051,17453 4070,17464 4088,17475 4108,17484 4128,17493 4148,17502 4169,17510 4190,17518 4211,17526 4233,17532 4255,17538 4277,17544 4300,17549 4323,17553 4346,17558 4370,17560 4393,17563 4417,17566 4441,17567 4466,17568 4490,17569 4514,17568 4539,17567 4563,17566 4586,17563 4610,17560 4634,17558 4657,17553 4680,17549 4703,17544 4725,17538 4747,17532 4769,17525 4790,17518 4811,17510 4832,17502 4852,17493 4872,17484 4892,17475 4910,17464 4929,17453 4948,17443 4965,17431 4982,17419 4999,17407 5015,17394 5031,17381 5046,17368 5060,17354 5075,17339 5089,17325 5101,17310 5113,17295 5125,17280 5135,17264 5146,17248 5156,17231 5164,17215 5173,17198 5181,17181 5187,17163 5193,17145 5199,17128 5203,17109 5206,17091 5210,17073 5211,17054 5213,17035 5214,17016 5212,16987 5210,16957 5207,16928 5201,16900 5195,16873 5189,16846 5179,16820 5169,16795 5159,16769 5147,16745 5134,16721 5121,16697 5106,16674 5091,16651 5075,16627 5058,16604 5041,16582 5024,16559 4985,16514 4946,16468 4908,16422 4868,16373 4827,16324 4787,16275 4768,16248 4748,16221 4729,16194 4710,16165 4692,16136 4674,16107 4657,16075 4640,16043 4623,16011 4608,15977 4594,15942 4579,15907 4567,15869 4555,15830 4543,15792 4534,15750 4525,15708 4516,15665 4516,15665 4516,15664 4516,15663 4516,15663 4515,15662 4515,15662 4515,15661 4515,15660 4514,15660 4514,15659 4513,15659 4513,15658 4513,15658 4512,15657 4512,15657 4511,15656 4511,15656 4510,15656 4510,15655 4509,15655 4509,15654 4508,15654 4508,15654 4507,15653 4506,15653 4505,15652 4503,15652 4502,15651 4500,15651 4499,15650 4498,15650 4496,15650 4495,15649 4493,15649 4492,15649 4490,15649 4489,15649 4487,15649 4485,15649 4484,15650 4483,15650 4481,15650 4480,15651 4478,15651 4477,15652 4476,15652 4474,15653 4473,15653 4472,15654 4472,15654 4471,15654 4471,15655 4470,15655 4470,15656 4469,15656 4469,15656 4468,15657 4468,15657 4467,15658 4467,15658 4467,15659 4466,15659 4466,15660 4466,15660 4465,15661 4465,15662 4465,15662 4465,15663 4464,15663 4464,15664 4464,15665 4464,15665 Z"/>
   </g>
  </g>
  <g className="com.sun.star.drawing.ClosedBezierShape">
   <g id="id10">
    <rect className="BoundingBox" stroke="none" fill="none" x="6991" y="16399" width="1450" height="1921"/>
    <path fill="rgb(102,199,249)" stroke="none" d="M 7690,16415 C 7681,16458 7672,16500 7663,16542 7651,16580 7639,16619 7627,16657 7612,16692 7598,16727 7583,16761 7566,16793 7549,16825 7533,16857 7514,16886 7496,16915 7477,16944 7458,16971 7438,16998 7419,17025 7378,17074 7338,17123 7298,17172 7259,17218 7221,17264 7183,17309 7165,17332 7148,17354 7131,17377 7115,17401 7100,17424 7085,17447 7072,17471 7059,17495 7046,17519 7037,17545 7027,17570 7017,17596 7011,17623 7005,17650 6998,17678 6996,17707 6994,17737 6992,17766 6993,17785 6994,17804 6996,17823 6999,17841 7003,17859 7007,17878 7013,17895 7019,17913 7025,17931 7033,17948 7041,17965 7050,17982 7060,17998 7070,18014 7081,18030 7093,18045 7105,18060 7118,18075 7132,18090 7146,18104 7160,18118 7175,18131 7191,18144 7207,18157 7224,18169 7241,18181 7258,18193 7277,18203 7296,18214 7314,18225 7334,18234 7354,18243 7374,18252 7395,18260 7416,18268 7437,18276 7459,18282 7481,18288 7503,18294 7526,18299 7549,18303 7572,18308 7596,18310 7619,18313 7643,18316 7667,18317 7692,18318 7716,18319 7740,18318 7765,18317 7789,18316 7812,18313 7836,18310 7860,18308 7883,18303 7906,18299 7929,18294 7951,18288 7973,18282 7995,18275 8016,18268 8037,18260 8058,18252 8078,18243 8098,18234 8118,18225 8136,18214 8155,18203 8174,18193 8191,18181 8208,18169 8225,18157 8241,18144 8257,18131 8272,18118 8286,18104 8301,18089 8315,18075 8327,18060 8339,18045 8351,18030 8361,18014 8372,17998 8382,17981 8390,17965 8399,17948 8407,17931 8413,17913 8419,17895 8425,17878 8429,17859 8432,17841 8436,17823 8437,17804 8439,17785 8440,17766 8438,17737 8436,17707 8433,17678 8427,17650 8421,17623 8415,17596 8405,17570 8395,17545 8385,17519 8373,17495 8360,17471 8347,17447 8332,17424 8317,17401 8301,17377 8284,17354 8267,17332 8250,17309 8211,17264 8172,17218 8134,17172 8094,17123 8053,17074 8013,17025 7994,16998 7974,16971 7955,16944 7936,16915 7918,16886 7900,16857 7883,16825 7866,16793 7849,16761 7834,16727 7820,16692 7805,16657 7793,16619 7781,16580 7769,16542 7760,16500 7751,16458 7742,16415 7742,16415 7742,16414 7742,16413 7742,16413 7741,16412 7741,16412 7741,16411 7741,16410 7740,16410 7740,16409 7739,16409 7739,16408 7739,16408 7738,16407 7738,16407 7737,16406 7737,16406 7736,16406 7736,16405 7735,16405 7735,16404 7734,16404 7734,16404 7733,16403 7732,16403 7731,16402 7729,16402 7728,16401 7726,16401 7725,16400 7724,16400 7722,16400 7721,16399 7719,16399 7718,16399 7716,16399 7715,16399 7713,16399 7711,16399 7710,16400 7709,16400 7707,16400 7706,16401 7704,16401 7703,16402 7702,16402 7700,16403 7699,16403 7698,16404 7698,16404 7697,16404 7697,16405 7696,16405 7696,16406 7695,16406 7695,16406 7694,16407 7694,16407 7693,16408 7693,16408 7693,16409 7692,16409 7692,16410 7692,16410 7691,16411 7691,16412 7691,16412 7691,16413 7690,16413 7690,16414 7690,16415 7690,16415 Z"/>
   </g>
  </g>
  <g className="com.sun.star.drawing.ClosedBezierShape">
   <g id="id11">
    <rect className="BoundingBox" stroke="none" fill="none" x="5803" y="17256" width="1450" height="1921"/>
    <path fill="rgb(102,199,249)" stroke="none" d="M 6502,17272 C 6493,17315 6484,17357 6475,17399 6463,17437 6451,17476 6439,17514 6424,17549 6410,17584 6395,17618 6378,17650 6361,17682 6345,17714 6326,17743 6308,17772 6289,17801 6270,17828 6250,17855 6231,17882 6190,17931 6150,17980 6110,18029 6071,18075 6033,18121 5995,18166 5977,18189 5960,18211 5943,18234 5927,18258 5912,18281 5897,18304 5884,18328 5871,18352 5858,18376 5849,18402 5839,18427 5829,18453 5823,18480 5817,18507 5810,18535 5808,18564 5806,18594 5804,18623 5805,18642 5806,18661 5808,18680 5811,18698 5815,18716 5819,18735 5825,18752 5831,18770 5837,18788 5845,18805 5853,18822 5862,18839 5872,18855 5882,18871 5893,18887 5905,18902 5917,18917 5930,18932 5944,18947 5958,18961 5972,18975 5987,18988 6003,19001 6019,19014 6036,19026 6053,19038 6070,19050 6089,19060 6108,19071 6126,19082 6146,19091 6166,19100 6186,19109 6207,19117 6228,19125 6249,19133 6271,19139 6293,19145 6315,19151 6338,19156 6361,19160 6384,19165 6408,19167 6431,19170 6455,19173 6479,19174 6504,19175 6528,19176 6552,19175 6577,19174 6601,19173 6624,19170 6648,19167 6672,19165 6695,19160 6718,19156 6741,19151 6763,19145 6785,19139 6807,19132 6828,19125 6849,19117 6870,19109 6890,19100 6910,19091 6930,19082 6948,19071 6967,19060 6986,19050 7003,19038 7020,19026 7037,19014 7053,19001 7069,18988 7084,18975 7098,18961 7113,18946 7127,18932 7139,18917 7151,18902 7163,18887 7173,18871 7184,18855 7194,18838 7202,18822 7211,18805 7219,18788 7225,18770 7231,18752 7237,18735 7241,18716 7244,18698 7248,18680 7249,18661 7251,18642 7252,18623 7250,18594 7248,18564 7245,18535 7239,18507 7233,18480 7227,18453 7217,18427 7207,18402 7197,18376 7185,18352 7172,18328 7159,18304 7144,18281 7129,18258 7113,18234 7096,18211 7079,18189 7062,18166 7023,18121 6984,18075 6946,18029 6906,17980 6865,17931 6825,17882 6806,17855 6786,17828 6767,17801 6748,17772 6730,17743 6712,17714 6695,17682 6678,17650 6661,17618 6646,17584 6632,17549 6617,17514 6605,17476 6593,17437 6581,17399 6572,17357 6563,17315 6554,17272 6554,17272 6554,17271 6554,17270 6554,17270 6553,17269 6553,17269 6553,17268 6553,17267 6552,17267 6552,17266 6551,17266 6551,17265 6551,17265 6550,17264 6550,17264 6549,17263 6549,17263 6548,17263 6548,17262 6547,17262 6547,17261 6546,17261 6546,17261 6545,17260 6544,17260 6543,17259 6541,17259 6540,17258 6538,17258 6537,17257 6536,17257 6534,17257 6533,17256 6531,17256 6530,17256 6528,17256 6527,17256 6525,17256 6523,17256 6522,17257 6521,17257 6519,17257 6518,17258 6516,17258 6515,17259 6514,17259 6512,17260 6511,17260 6510,17261 6510,17261 6509,17261 6509,17262 6508,17262 6508,17263 6507,17263 6507,17263 6506,17264 6506,17264 6505,17265 6505,17265 6505,17266 6504,17266 6504,17267 6504,17267 6503,17268 6503,17269 6503,17269 6503,17270 6502,17270 6502,17271 6502,17272 6502,17272 Z"/>
   </g>
  </g>
 </g>
</svg>