<?xml version="1.0" encoding="UTF-8"?>
<!DOCTYPE svg PUBLIC "-//W3C//DTD SVG 1.1//EN" "http://www.w3.org/Graphics/SVG/1.1/DTD/svg11.dtd">
<svg version="1.2" width="100.02mm" height="100.02mm" viewBox="1001 9851 10002 10002" preserveAspectRatio="xMidYMid" fill-rule="evenodd" stroke-width="28.222" stroke-linejoin="round" xmlns="http://www.w3.org/2000/svg" xmlns:ooo="http://xml.openoffice.org/svg/export" xmlns:xlink="http://www.w3.org/1999/xlink" xmlns:presentation="http://sun.com/xmlns/staroffice/presentation" xmlns:smil="http://www.w3.org/2001/SMIL20/" xmlns:anim="urn:oasis:names:tc:opendocument:xmlns:animation:1.0" xml:space="preserve">
 <defs className="EmbeddedBulletChars">
  <g id="bullet-char-template-57356" transform="scale(0.00048828125,-0.00048828125)">
   <path d="M 580,1141 L 1163,571 580,0 -4,571 580,1141 Z"/>
  </g>
  <g id="bullet-char-template-57354" transform="scale(0.00048828125,-0.00048828125)">
   <path d="M 8,1128 L 1137,1128 1137,0 8,0 8,1128 Z"/>
  </g>
  <g id="bullet-char-template-10146" transform="scale(0.00048828125,-0.00048828125)">
   <path d="M 174,0 L 602,739 174,1481 1456,739 174,0 Z M 1358,739 L 309,1346 659,739 1358,739 Z"/>
  </g>
  <g id="bullet-char-template-10132" transform="scale(0.00048828125,-0.00048828125)">
   <path d="M 2015,739 L 1276,0 717,0 1260,543 174,543 174,936 1260,936 717,1481 1274,1481 2015,739 Z"/>
  </g>
  <g id="bullet-char-template-10007" transform="scale(0.00048828125,-0.00048828125)">
   <path d="M 0,-2 C -7,14 -16,27 -25,37 L 356,567 C 262,823 215,952 215,954 215,979 228,992 255,992 264,992 276,990 289,987 310,991 331,999 354,1012 L 381,999 492,748 772,1049 836,1024 860,1049 C 881,1039 901,1025 922,1006 886,937 835,863 770,784 769,783 710,716 594,584 L 774,223 C 774,196 753,168 711,139 L 727,119 C 717,90 699,76 672,76 641,76 570,178 457,381 L 164,-76 C 142,-110 111,-127 72,-127 30,-127 9,-110 8,-76 1,-67 -2,-52 -2,-32 -2,-23 -1,-13 0,-2 Z"/>
  </g>
  <g id="bullet-char-template-10004" transform="scale(0.00048828125,-0.00048828125)">
   <path d="M 285,-33 C 182,-33 111,30 74,156 52,228 41,333 41,471 41,549 55,616 82,672 116,743 169,778 240,778 293,778 328,747 346,684 L 369,508 C 377,444 397,411 428,410 L 1163,1116 C 1174,1127 1196,1133 1229,1133 1271,1133 1292,1118 1292,1087 L 1292,965 C 1292,929 1282,901 1262,881 L 442,47 C 390,-6 338,-33 285,-33 Z"/>
  </g>
  <g id="bullet-char-template-9679" transform="scale(0.00048828125,-0.00048828125)">
   <path d="M 813,0 C 632,0 489,54 383,161 276,268 223,411 223,592 223,773 276,916 383,1023 489,1130 632,1184 813,1184 992,1184 1136,1130 1245,1023 1353,916 1407,772 1407,592 1407,412 1353,268 1245,161 1136,54 992,0 813,0 Z"/>
  </g>
  <g id="bullet-char-template-8226" transform="scale(0.00048828125,-0.00048828125)">
   <path d="M 346,457 C 273,457 209,483 155,535 101,586 74,649 74,723 74,796 101,859 155,911 209,963 273,989 346,989 419,989 480,963 531,910 582,859 608,796 608,723 608,648 583,586 532,535 482,483 420,457 346,457 Z"/>
  </g>
  <g id="bullet-char-template-8211" transform="scale(0.00048828125,-0.00048828125)">
   <path d="M -4,459 L 1135,459 1135,606 -4,606 -4,459 Z"/>
  </g>
  <g id="bullet-char-template-61548" transform="scale(0.00048828125,-0.00048828125)">
   <path d="M 173,740 C 173,903 231,1043 346,1159 462,1274 601,1332 765,1332 928,1332 1067,1274 1183,1159 1299,1043 1357,903 1357,740 1357,577 1299,437 1183,322 1067,206 928,148 765,148 601,148 462,206 346,322 231,437 173,577 173,740 Z"/>
  </g>
 </defs>
 <g className="Page">
  <g className="com.sun.star.drawing.CustomShape">
   <g id="id3">
    <rect className="BoundingBox" stroke="none" fill="none" x="1001" y="9851" width="10002" height="10002"/>
    <path fill="rgb(5,21,32)" stroke="none" d="M 11002,14852 C 11002,15729 10771,16592 10332,17352 9893,18112 9262,18743 8502,19182 7742,19621 6879,19852 6002,19852 5124,19852 4261,19621 3501,19182 2741,18743 2110,18112 1671,17352 1232,16592 1001,15729 1001,14852 1001,13974 1232,13111 1671,12351 2110,11591 2741,10960 3501,10521 4261,10082 5124,9851 6001,9851 6879,9851 7742,10082 8502,10521 9262,10960 9893,11591 10332,12351 10771,13111 11002,13974 11002,14851 L 11002,14852 Z"/>
   </g>
  </g>
  <g className="Group">
   <g className="com.sun.star.drawing.CustomShape">
    <g id="id4">
     <rect className="BoundingBox" stroke="none" fill="none" x="3244" y="12058" width="5184" height="5688"/>
     <path fill="rgb(255,213,80)" stroke="none" d="M 4987,12058 C 4543,13025 4291,14266 5202,15567 6113,16868 7366,17057 8426,16971 6774,18127 4642,17968 3698,16620 2754,15271 3334,13215 4987,12058 L 4987,12058 Z"/>
    </g>
   </g>
   <g className="com.sun.star.drawing.CustomShape">
    <g id="id5">
     <rect className="BoundingBox" stroke="none" fill="none" x="7533" y="12040" width="1092" height="1093"/>
     <path fill="rgb(255,213,80)" stroke="none" d="M 8078,12040 L 7951,12457 7533,12457 7872,12717 7745,13132 8078,12878 8411,13132 8284,12717 8624,12457 8205,12457 8078,12040 8078,12040 Z"/>
    </g>
   </g>
   <g className="com.sun.star.drawing.CustomShape">
    <g id="id6">
     <rect className="BoundingBox" stroke="none" fill="none" x="7097" y="14440" width="1529" height="1529"/>
     <path fill="rgb(255,213,80)" stroke="none" d="M 7860,14440 L 7682,15024 7097,15024 7572,15388 7393,15968 7860,15612 8327,15968 8148,15388 8624,15024 8038,15024 7860,14440 7860,14440 Z"/>
    </g>
   </g>
   <g className="com.sun.star.drawing.CustomShape">
    <g id="id7">
     <rect className="BoundingBox" stroke="none" fill="none" x="5137" y="11826" width="1528" height="1528"/>
     <path fill="rgb(255,213,80)" stroke="none" d="M 5900,11826 L 5722,12409 5137,12409 5612,12773 5433,13353 5900,12998 6367,13353 6188,12773 6664,12409 6078,12409 5900,11826 5900,11826 Z"/>
    </g>
   </g>
  </g>
 </g>
</svg>