<?xml version="1.0" encoding="UTF-8"?>
<!DOCTYPE svg PUBLIC "-//W3C//DTD SVG 1.1//EN" "http://www.w3.org/Graphics/SVG/1.1/DTD/svg11.dtd">
<svg version="1.2" width="100.02mm" height="100.02mm" viewBox="1001 9851 10002 10002" preserveAspectRatio="xMidYMid" fill-rule="evenodd" stroke-width="28.222" stroke-linejoin="round" xmlns="http://www.w3.org/2000/svg" xmlns:ooo="http://xml.openoffice.org/svg/export" xmlns:xlink="http://www.w3.org/1999/xlink" xmlns:presentation="http://sun.com/xmlns/staroffice/presentation" xmlns:smil="http://www.w3.org/2001/SMIL20/" xmlns:anim="urn:oasis:names:tc:opendocument:xmlns:animation:1.0" xml:space="preserve">
 <defs className="EmbeddedBulletChars">
  <g id="bullet-char-template-57356" transform="scale(0.00048828125,-0.00048828125)">
   <path d="M 580,1141 L 1163,571 580,0 -4,571 580,1141 Z"/>
  </g>
  <g id="bullet-char-template-57354" transform="scale(0.00048828125,-0.00048828125)">
   <path d="M 8,1128 L 1137,1128 1137,0 8,0 8,1128 Z"/>
  </g>
  <g id="bullet-char-template-10146" transform="scale(0.00048828125,-0.00048828125)">
   <path d="M 174,0 L 602,739 174,1481 1456,739 174,0 Z M 1358,739 L 309,1346 659,739 1358,739 Z"/>
  </g>
  <g id="bullet-char-template-10132" transform="scale(0.00048828125,-0.00048828125)">
   <path d="M 2015,739 L 1276,0 717,0 1260,543 174,543 174,936 1260,936 717,1481 1274,1481 2015,739 Z"/>
  </g>
  <g id="bullet-char-template-10007" transform="scale(0.00048828125,-0.00048828125)">
   <path d="M 0,-2 C -7,14 -16,27 -25,37 L 356,567 C 262,823 215,952 215,954 215,979 228,992 255,992 264,992 276,990 289,987 310,991 331,999 354,1012 L 381,999 492,748 772,1049 836,1024 860,1049 C 881,1039 901,1025 922,1006 886,937 835,863 770,784 769,783 710,716 594,584 L 774,223 C 774,196 753,168 711,139 L 727,119 C 717,90 699,76 672,76 641,76 570,178 457,381 L 164,-76 C 142,-110 111,-127 72,-127 30,-127 9,-110 8,-76 1,-67 -2,-52 -2,-32 -2,-23 -1,-13 0,-2 Z"/>
  </g>
  <g id="bullet-char-template-10004" transform="scale(0.00048828125,-0.00048828125)">
   <path d="M 285,-33 C 182,-33 111,30 74,156 52,228 41,333 41,471 41,549 55,616 82,672 116,743 169,778 240,778 293,778 328,747 346,684 L 369,508 C 377,444 397,411 428,410 L 1163,1116 C 1174,1127 1196,1133 1229,1133 1271,1133 1292,1118 1292,1087 L 1292,965 C 1292,929 1282,901 1262,881 L 442,47 C 390,-6 338,-33 285,-33 Z"/>
  </g>
  <g id="bullet-char-template-9679" transform="scale(0.00048828125,-0.00048828125)">
   <path d="M 813,0 C 632,0 489,54 383,161 276,268 223,411 223,592 223,773 276,916 383,1023 489,1130 632,1184 813,1184 992,1184 1136,1130 1245,1023 1353,916 1407,772 1407,592 1407,412 1353,268 1245,161 1136,54 992,0 813,0 Z"/>
  </g>
  <g id="bullet-char-template-8226" transform="scale(0.00048828125,-0.00048828125)">
   <path d="M 346,457 C 273,457 209,483 155,535 101,586 74,649 74,723 74,796 101,859 155,911 209,963 273,989 346,989 419,989 480,963 531,910 582,859 608,796 608,723 608,648 583,586 532,535 482,483 420,457 346,457 Z"/>
  </g>
  <g id="bullet-char-template-8211" transform="scale(0.00048828125,-0.00048828125)">
   <path d="M -4,459 L 1135,459 1135,606 -4,606 -4,459 Z"/>
  </g>
  <g id="bullet-char-template-61548" transform="scale(0.00048828125,-0.00048828125)">
   <path d="M 173,740 C 173,903 231,1043 346,1159 462,1274 601,1332 765,1332 928,1332 1067,1274 1183,1159 1299,1043 1357,903 1357,740 1357,577 1299,437 1183,322 1067,206 928,148 765,148 601,148 462,206 346,322 231,437 173,577 173,740 Z"/>
  </g>
 </defs>
 <g className="Page">
  <g className="com.sun.star.drawing.CustomShape">
   <g id="id3">
    <rect className="BoundingBox" stroke="none" fill="none" x="1001" y="9851" width="10002" height="10002"/>
    <path fill="rgb(5,21,32)" stroke="none" d="M 11002,14852 C 11002,15729 10771,16592 10332,17352 9893,18112 9262,18743 8502,19182 7742,19621 6879,19852 6002,19852 5124,19852 4261,19621 3501,19182 2741,18743 2110,18112 1671,17352 1232,16592 1001,15729 1001,14852 1001,13974 1232,13111 1671,12351 2110,11591 2741,10960 3501,10521 4261,10082 5124,9851 6001,9851 6879,9851 7742,10082 8502,10521 9262,10960 9893,11591 10332,12351 10771,13111 11002,13974 11002,14851 L 11002,14852 Z"/>
   </g>
  </g>
  <g className="Group">
   <g className="com.sun.star.drawing.CustomShape">
    <g id="id4">
     <rect className="BoundingBox" stroke="none" fill="none" x="3244" y="12058" width="5184" height="5688"/>
     <path fill="rgb(255,213,80)" stroke="none" d="M 4987,12058 C 4543,13025 4291,14266 5202,15567 6113,16868 7366,17057 8426,16971 6774,18127 4642,17968 3698,16620 2754,15271 3334,13215 4987,12058 L 4987,12058 Z"/>
    </g>
   </g>
   <g className="com.sun.star.drawing.CustomShape">
    <g id="id5">
     <rect className="BoundingBox" stroke="none" fill="none" x="7533" y="12040" width="1092" height="1093"/>
     <path fill="rgb(255,213,80)" stroke="none" d="M 8078,12040 L 7951,12457 7533,12457 7872,12717 7745,13132 8078,12878 8411,13132 8284,12717 8624,12457 8205,12457 8078,12040 8078,12040 Z"/>
    </g>
   </g>
   <g className="com.sun.star.drawing.CustomShape">
    <g id="id6">
     <rect className="BoundingBox" stroke="none" fill="none" x="7097" y="14440" width="1529" height="1529"/>
     <path fill="rgb(255,213,80)" stroke="none" d="M 7860,14440 L 7682,15024 7097,15024 7572,15388 7393,15968 7860,15612 8327,15968 8148,15388 8624,15024 8038,15024 7860,14440 7860,14440 Z"/>
    </g>
   </g>
   <g className="com.sun.star.drawing.CustomShape">
    <g id="id7">
     <rect className="BoundingBox" stroke="none" fill="none" x="5137" y="11826" width="1528" height="1528"/>
     <path fill="rgb(255,213,80)" stroke="none" d="M 5900,11826 L 5722,12409 5137,12409 5612,12773 5433,13353 5900,12998 6367,13353 6188,12773 6664,12409 6078,12409 5900,11826 5900,11826 Z"/>
    </g>
   </g>
  </g>
  <g className="Group">
   <g className="com.sun.star.drawing.CustomShape">
    <g id="id8">
     <rect className="BoundingBox" stroke="none" fill="none" x="4624" y="13866" width="4627" height="1714"/>
     <path fill="rgb(189,188,188)" stroke="none" d="M 5480,13867 L 5480,13867 C 5330,13867 5182,13907 5052,13982 4922,14057 4814,14165 4739,14295 4664,14425 4624,14573 4624,14723 L 4624,14723 4624,14723 C 4624,14873 4664,15021 4739,15151 4814,15281 4922,15389 5052,15464 5182,15539 5330,15579 5480,15579 L 8394,15579 8394,15579 C 8544,15579 8692,15539 8822,15464 8952,15389 9060,15281 9135,15151 9210,15021 9250,14873 9250,14723 L 9250,14723 9250,14723 9250,14723 C 9250,14573 9210,14425 9135,14295 9060,14165 8952,14057 8822,13982 8692,13907 8544,13867 8394,13867 L 5480,13867 Z"/>
    </g>
   </g>
   <g className="com.sun.star.drawing.CustomShape">
    <g id="id9">
     <rect className="BoundingBox" stroke="none" fill="none" x="4895" y="13456" width="1907" height="1713"/>
     <path fill="rgb(189,188,188)" stroke="none" d="M 6801,14312 C 6801,14463 6757,14610 6673,14740 6590,14870 6469,14978 6325,15053 6180,15128 6015,15168 5848,15168 5681,15168 5516,15128 5372,15053 5227,14978 5106,14870 5023,14740 4939,14610 4895,14463 4895,14312 4895,14162 4939,14015 5023,13885 5106,13755 5227,13647 5371,13572 5516,13497 5681,13457 5848,13457 6015,13457 6180,13497 6324,13572 6469,13647 6590,13755 6673,13885 6757,14015 6801,14162 6801,14312 L 6801,14312 Z"/>
    </g>
   </g>
   <g className="com.sun.star.drawing.CustomShape">
    <g id="id10">
     <rect className="BoundingBox" stroke="none" fill="none" x="7128" y="13114" width="1905" height="1713"/>
     <path fill="rgb(189,188,188)" stroke="none" d="M 9032,13970 C 9032,14120 8988,14268 8904,14398 8821,14528 8701,14636 8556,14711 8411,14786 8247,14826 8080,14826 7913,14826 7749,14786 7604,14711 7459,14636 7339,14528 7256,14398 7172,14268 7128,14120 7128,13970 7128,13820 7172,13672 7256,13542 7339,13412 7459,13304 7604,13229 7749,13154 7913,13114 8080,13114 8247,13114 8411,13154 8556,13229 8701,13304 8821,13412 8904,13542 8988,13672 9032,13820 9032,13970 L 9032,13970 Z"/>
    </g>
   </g>
   <g className="com.sun.star.drawing.CustomShape">
    <g id="id11">
     <rect className="BoundingBox" stroke="none" fill="none" x="5984" y="12497" width="1907" height="1714"/>
     <path fill="rgb(189,188,188)" stroke="none" d="M 7890,13354 C 7890,13504 7846,13652 7762,13782 7679,13912 7558,14020 7414,14095 7269,14170 7104,14210 6937,14210 6770,14210 6605,14170 6461,14095 6316,14020 6195,13912 6112,13782 6028,13652 5984,13504 5984,13354 5984,13204 6028,13056 6112,12926 6195,12796 6316,12688 6460,12613 6605,12538 6770,12498 6937,12498 7104,12498 7269,12538 7413,12613 7558,12688 7679,12796 7762,12926 7846,13056 7890,13204 7890,13354 L 7890,13354 Z"/>
    </g>
   </g>
  </g>
  <g className="Group">
   <g className="com.sun.star.drawing.CustomShape">
    <g id="id12">
     <rect className="BoundingBox" stroke="none" fill="none" x="1521" y="15638" width="6225" height="1963"/>
     <path fill="rgb(251,251,251)" stroke="none" d="M 2502,15638 L 2502,15638 C 2330,15638 2161,15683 2011,15769 1862,15856 1739,15979 1652,16129 1566,16278 1521,16447 1521,16619 L 1521,16619 1521,16619 C 1521,16791 1566,16960 1652,17110 1739,17259 1862,17382 2012,17469 2161,17555 2330,17600 2502,17600 L 6764,17600 6764,17600 C 6936,17600 7105,17555 7254,17469 7404,17382 7527,17259 7614,17110 7700,16960 7745,16791 7745,16619 L 7745,16619 7745,16619 7745,16619 C 7745,16447 7700,16278 7614,16129 7527,15979 7404,15856 7254,15769 7105,15683 6936,15638 6764,15638 L 2502,15638 Z"/>
    </g>
   </g>
   <g className="com.sun.star.drawing.CustomShape">
    <g id="id13">
     <rect className="BoundingBox" stroke="none" fill="none" x="1887" y="15169" width="2566" height="1962"/>
     <path fill="rgb(251,251,251)" stroke="none" d="M 4452,16150 C 4452,16322 4393,16491 4280,16640 4168,16789 4006,16913 3811,16999 3616,17085 3395,17130 3170,17130 2944,17130 2723,17085 2528,16999 2333,16913 2171,16789 2059,16640 1946,16491 1887,16322 1887,16150 1887,15977 1946,15808 2059,15659 2171,15510 2333,15386 2528,15300 2723,15214 2944,15169 3169,15169 3395,15169 3616,15214 3811,15300 4006,15386 4168,15510 4280,15659 4393,15808 4452,15977 4452,16149 L 4452,16150 Z"/>
    </g>
   </g>
   <g className="com.sun.star.drawing.CustomShape">
    <g id="id14">
     <rect className="BoundingBox" stroke="none" fill="none" x="4891" y="14776" width="2564" height="1963"/>
     <path fill="rgb(251,251,251)" stroke="none" d="M 7454,15757 C 7454,15929 7395,16098 7282,16248 7170,16397 7008,16520 6813,16607 6618,16693 6397,16738 6173,16738 5948,16738 5727,16693 5532,16607 5337,16520 5175,16397 5063,16248 4950,16098 4891,15929 4891,15757 4891,15585 4950,15416 5063,15267 5175,15117 5337,14994 5532,14907 5727,14821 5948,14776 6172,14776 6397,14776 6618,14821 6813,14907 7008,14994 7170,15117 7282,15267 7395,15416 7454,15585 7454,15757 L 7454,15757 Z"/>
    </g>
   </g>
   <g className="com.sun.star.drawing.CustomShape">
    <g id="id15">
     <rect className="BoundingBox" stroke="none" fill="none" x="3352" y="14070" width="2563" height="1963"/>
     <path fill="rgb(251,251,251)" stroke="none" d="M 5914,15051 C 5914,15223 5855,15392 5742,15542 5630,15691 5468,15814 5274,15901 5079,15987 4858,16032 4633,16032 4408,16032 4187,15987 3993,15901 3798,15814 3636,15691 3524,15542 3411,15392 3352,15223 3352,15051 3352,14879 3411,14710 3524,14561 3636,14411 3798,14288 3992,14201 4187,14115 4408,14070 4633,14070 4858,14070 5079,14115 5273,14201 5468,14288 5630,14411 5742,14561 5855,14710 5914,14879 5914,15051 L 5914,15051 Z"/>
    </g>
   </g>
  </g>
  <g className="Group">
   <g className="com.sun.star.drawing.CustomShape">
    <g id="id16">
     <rect className="BoundingBox" stroke="none" fill="none" x="5195" y="16543" width="4752" height="1760"/>
     <path fill="rgb(220,220,219)" stroke="none" d="M 6074,16543 L 6075,16543 C 5920,16543 5768,16584 5635,16661 5501,16738 5390,16849 5313,16983 5236,17116 5195,17268 5195,17423 L 5195,17422 5195,17423 C 5195,17577 5236,17729 5313,17862 5390,17996 5501,18107 5635,18184 5768,18261 5920,18302 6075,18302 L 9066,18301 9067,18302 C 9221,18302 9373,18261 9506,18184 9640,18107 9751,17996 9828,17862 9905,17729 9946,17577 9946,17423 L 9946,17422 9946,17423 9946,17423 C 9946,17268 9905,17116 9828,16983 9751,16849 9640,16738 9506,16661 9373,16584 9221,16543 9067,16543 L 6074,16543 Z"/>
    </g>
   </g>
   <g className="com.sun.star.drawing.CustomShape">
    <g id="id17">
     <rect className="BoundingBox" stroke="none" fill="none" x="5472" y="16122" width="1959" height="1758"/>
     <path fill="rgb(220,220,219)" stroke="none" d="M 7430,17001 C 7430,17155 7385,17306 7299,17440 7213,17573 7089,17684 6941,17761 6792,17838 6623,17879 6451,17879 6279,17879 6110,17838 5962,17761 5813,17684 5689,17573 5603,17440 5517,17306 5472,17155 5472,17001 5472,16846 5517,16695 5603,16561 5689,16428 5813,16317 5961,16240 6110,16163 6279,16122 6451,16122 6623,16122 6792,16163 6940,16240 7089,16317 7213,16428 7299,16561 7385,16695 7430,16846 7430,17001 L 7430,17001 Z"/>
    </g>
   </g>
   <g className="com.sun.star.drawing.CustomShape">
    <g id="id18">
     <rect className="BoundingBox" stroke="none" fill="none" x="7766" y="15770" width="1957" height="1760"/>
     <path fill="rgb(220,220,219)" stroke="none" d="M 9722,16650 C 9722,16804 9677,16956 9591,17089 9505,17223 9382,17334 9233,17411 9084,17488 8916,17529 8744,17529 8572,17529 8404,17488 8255,17411 8106,17334 7983,17223 7897,17089 7811,16956 7766,16804 7766,16650 7766,16495 7811,16343 7897,16210 7983,16076 8106,15965 8255,15888 8404,15811 8572,15770 8744,15770 8916,15770 9084,15811 9233,15888 9382,15965 9505,16076 9591,16210 9677,16343 9722,16495 9722,16650 L 9722,16650 Z"/>
    </g>
   </g>
   <g className="com.sun.star.drawing.CustomShape">
    <g id="id19">
     <rect className="BoundingBox" stroke="none" fill="none" x="6591" y="15137" width="1959" height="1760"/>
     <path fill="rgb(220,220,219)" stroke="none" d="M 8549,16017 C 8549,16171 8504,16323 8418,16456 8332,16590 8208,16701 8060,16778 7911,16855 7742,16896 7570,16896 7398,16896 7229,16855 7081,16778 6932,16701 6808,16590 6722,16456 6636,16323 6591,16171 6591,16017 6591,15862 6636,15710 6722,15577 6808,15443 6932,15332 7081,15255 7229,15178 7398,15137 7570,15137 7742,15137 7911,15178 8059,15255 8208,15332 8332,15443 8418,15577 8504,15710 8549,15862 8549,16017 L 8549,16017 Z"/>
    </g>
   </g>
  </g>
  <g className="com.sun.star.drawing.ClosedBezierShape">
   <g id="id20">
    <rect className="BoundingBox" stroke="none" fill="none" x="5803" y="17256" width="1450" height="1921"/>
    <path fill="rgb(102,199,249)" stroke="none" d="M 6502,17272 C 6493,17315 6484,17357 6475,17399 6463,17437 6451,17476 6439,17514 6424,17549 6410,17584 6395,17618 6378,17650 6361,17682 6345,17714 6326,17743 6308,17772 6289,17801 6270,17828 6250,17855 6231,17882 6190,17931 6150,17980 6110,18029 6071,18075 6033,18121 5995,18166 5977,18189 5960,18211 5943,18234 5927,18258 5912,18281 5897,18304 5884,18328 5871,18352 5858,18376 5849,18402 5839,18427 5829,18453 5823,18480 5817,18507 5810,18535 5808,18564 5806,18594 5804,18623 5805,18642 5806,18661 5808,18680 5811,18698 5815,18716 5819,18735 5825,18752 5831,18770 5837,18788 5845,18805 5853,18822 5862,18839 5872,18855 5882,18871 5893,18887 5905,18902 5917,18917 5930,18932 5944,18947 5958,18961 5972,18975 5987,18988 6003,19001 6019,19014 6036,19026 6053,19038 6070,19050 6089,19060 6108,19071 6126,19082 6146,19091 6166,19100 6186,19109 6207,19117 6228,19125 6249,19133 6271,19139 6293,19145 6315,19151 6338,19156 6361,19160 6384,19165 6408,19167 6431,19170 6455,19173 6479,19174 6504,19175 6528,19176 6552,19175 6577,19174 6601,19173 6624,19170 6648,19167 6672,19165 6695,19160 6718,19156 6741,19151 6763,19145 6785,19139 6807,19132 6828,19125 6849,19117 6870,19109 6890,19100 6910,19091 6930,19082 6948,19071 6967,19060 6986,19050 7003,19038 7020,19026 7037,19014 7053,19001 7069,18988 7084,18975 7098,18961 7113,18946 7127,18932 7139,18917 7151,18902 7163,18887 7173,18871 7184,18855 7194,18838 7202,18822 7211,18805 7219,18788 7225,18770 7231,18752 7237,18735 7241,18716 7244,18698 7248,18680 7249,18661 7251,18642 7252,18623 7250,18594 7248,18564 7245,18535 7239,18507 7233,18480 7227,18453 7217,18427 7207,18402 7197,18376 7185,18352 7172,18328 7159,18304 7144,18281 7129,18258 7113,18234 7096,18211 7079,18189 7062,18166 7023,18121 6984,18075 6946,18029 6906,17980 6865,17931 6825,17882 6806,17855 6786,17828 6767,17801 6748,17772 6730,17743 6712,17714 6695,17682 6678,17650 6661,17618 6646,17584 6632,17549 6617,17514 6605,17476 6593,17437 6581,17399 6572,17357 6563,17315 6554,17272 6554,17272 6554,17271 6554,17270 6554,17270 6553,17269 6553,17269 6553,17268 6553,17267 6552,17267 6552,17266 6551,17266 6551,17265 6551,17265 6550,17264 6550,17264 6549,17263 6549,17263 6548,17263 6548,17262 6547,17262 6547,17261 6546,17261 6546,17261 6545,17260 6544,17260 6543,17259 6541,17259 6540,17258 6538,17258 6537,17257 6536,17257 6534,17257 6533,17256 6531,17256 6530,17256 6528,17256 6527,17256 6525,17256 6523,17256 6522,17257 6521,17257 6519,17257 6518,17258 6516,17258 6515,17259 6514,17259 6512,17260 6511,17260 6510,17261 6510,17261 6509,17261 6509,17262 6508,17262 6508,17263 6507,17263 6507,17263 6506,17264 6506,17264 6505,17265 6505,17265 6505,17266 6504,17266 6504,17267 6504,17267 6503,17268 6503,17269 6503,17269 6503,17270 6502,17270 6502,17271 6502,17272 6502,17272 Z"/>
   </g>
  </g>
  <g className="com.sun.star.drawing.ClosedBezierShape">
   <g id="id21">
    <rect className="BoundingBox" stroke="none" fill="none" x="3346" y="16918" width="1450" height="1921"/>
    <path fill="rgb(102,199,249)" stroke="none" d="M 4045,16934 C 4036,16977 4027,17019 4018,17061 4006,17099 3994,17138 3982,17176 3967,17211 3953,17246 3938,17280 3921,17312 3904,17344 3888,17376 3869,17405 3851,17434 3832,17463 3813,17490 3793,17517 3774,17544 3733,17593 3693,17642 3653,17691 3614,17737 3576,17783 3538,17828 3520,17851 3503,17873 3486,17896 3470,17920 3455,17943 3440,17966 3427,17990 3414,18014 3401,18038 3392,18064 3382,18089 3372,18115 3366,18142 3360,18169 3353,18197 3351,18226 3349,18256 3347,18285 3348,18304 3349,18323 3351,18342 3354,18360 3358,18378 3362,18397 3368,18414 3374,18432 3380,18450 3388,18467 3396,18484 3405,18501 3415,18517 3425,18533 3436,18549 3448,18564 3460,18579 3473,18594 3487,18609 3501,18623 3515,18637 3530,18650 3546,18663 3562,18676 3579,18688 3596,18700 3613,18712 3632,18722 3651,18733 3669,18744 3689,18753 3709,18762 3729,18771 3750,18779 3771,18787 3792,18795 3814,18801 3836,18807 3858,18813 3881,18818 3904,18822 3927,18827 3951,18829 3974,18832 3998,18835 4022,18836 4047,18837 4071,18838 4095,18837 4120,18836 4144,18835 4167,18832 4191,18829 4215,18827 4238,18822 4261,18818 4284,18813 4306,18807 4328,18801 4350,18794 4371,18787 4392,18779 4413,18771 4433,18762 4453,18753 4473,18744 4491,18733 4510,18722 4529,18712 4546,18700 4563,18688 4580,18676 4596,18663 4612,18650 4627,18637 4641,18623 4656,18608 4670,18594 4682,18579 4694,18564 4706,18549 4716,18533 4727,18517 4737,18500 4745,18484 4754,18467 4762,18450 4768,18432 4774,18414 4780,18397 4784,18378 4787,18360 4791,18342 4792,18323 4794,18304 4795,18285 4793,18256 4791,18226 4788,18197 4782,18169 4776,18142 4770,18115 4760,18089 4750,18064 4740,18038 4728,18014 4715,17990 4702,17966 4687,17943 4672,17920 4656,17896 4639,17873 4622,17851 4605,17828 4566,17783 4527,17737 4489,17691 4449,17642 4408,17593 4368,17544 4349,17517 4329,17490 4310,17463 4291,17434 4273,17405 4255,17376 4238,17344 4221,17312 4204,17280 4189,17246 4175,17211 4160,17176 4148,17138 4136,17099 4124,17061 4115,17019 4106,16977 4097,16934 4097,16934 4097,16933 4097,16932 4097,16932 4096,16931 4096,16931 4096,16930 4096,16929 4095,16929 4095,16928 4094,16928 4094,16927 4094,16927 4093,16926 4093,16926 4092,16925 4092,16925 4091,16925 4091,16924 4090,16924 4090,16923 4089,16923 4089,16923 4088,16922 4087,16922 4086,16921 4084,16921 4083,16920 4081,16920 4080,16919 4079,16919 4077,16919 4076,16918 4074,16918 4073,16918 4071,16918 4070,16918 4068,16918 4066,16918 4065,16919 4064,16919 4062,16919 4061,16920 4059,16920 4058,16921 4057,16921 4055,16922 4054,16922 4053,16923 4053,16923 4052,16923 4052,16924 4051,16924 4051,16925 4050,16925 4050,16925 4049,16926 4049,16926 4048,16927 4048,16927 4048,16928 4047,16928 4047,16929 4047,16929 4046,16930 4046,16931 4046,16931 4046,16932 4045,16932 4045,16933 4045,16934 4045,16934 Z"/>
   </g>
  </g>
 </g>
</svg>