<?xml version="1.0" encoding="UTF-8"?>
<!DOCTYPE svg PUBLIC "-//W3C//DTD SVG 1.1//EN" "http://www.w3.org/Graphics/SVG/1.1/DTD/svg11.dtd">
<svg version="1.2" width="100.02mm" height="100.02mm" viewBox="1001 9851 10002 10002" preserveAspectRatio="xMidYMid" fill-rule="evenodd" stroke-width="28.222" stroke-linejoin="round" xmlns="http://www.w3.org/2000/svg" xmlns:ooo="http://xml.openoffice.org/svg/export" xmlns:xlink="http://www.w3.org/1999/xlink" xmlns:presentation="http://sun.com/xmlns/staroffice/presentation" xmlns:smil="http://www.w3.org/2001/SMIL20/" xmlns:anim="urn:oasis:names:tc:opendocument:xmlns:animation:1.0" xml:space="preserve">
 <defs className="EmbeddedBulletChars">
  <g id="bullet-char-template-57356" transform="scale(0.00048828125,-0.00048828125)">
   <path d="M 580,1141 L 1163,571 580,0 -4,571 580,1141 Z"/>
  </g>
  <g id="bullet-char-template-57354" transform="scale(0.00048828125,-0.00048828125)">
   <path d="M 8,1128 L 1137,1128 1137,0 8,0 8,1128 Z"/>
  </g>
  <g id="bullet-char-template-10146" transform="scale(0.00048828125,-0.00048828125)">
   <path d="M 174,0 L 602,739 174,1481 1456,739 174,0 Z M 1358,739 L 309,1346 659,739 1358,739 Z"/>
  </g>
  <g id="bullet-char-template-10132" transform="scale(0.00048828125,-0.00048828125)">
   <path d="M 2015,739 L 1276,0 717,0 1260,543 174,543 174,936 1260,936 717,1481 1274,1481 2015,739 Z"/>
  </g>
  <g id="bullet-char-template-10007" transform="scale(0.00048828125,-0.00048828125)">
   <path d="M 0,-2 C -7,14 -16,27 -25,37 L 356,567 C 262,823 215,952 215,954 215,979 228,992 255,992 264,992 276,990 289,987 310,991 331,999 354,1012 L 381,999 492,748 772,1049 836,1024 860,1049 C 881,1039 901,1025 922,1006 886,937 835,863 770,784 769,783 710,716 594,584 L 774,223 C 774,196 753,168 711,139 L 727,119 C 717,90 699,76 672,76 641,76 570,178 457,381 L 164,-76 C 142,-110 111,-127 72,-127 30,-127 9,-110 8,-76 1,-67 -2,-52 -2,-32 -2,-23 -1,-13 0,-2 Z"/>
  </g>
  <g id="bullet-char-template-10004" transform="scale(0.00048828125,-0.00048828125)">
   <path d="M 285,-33 C 182,-33 111,30 74,156 52,228 41,333 41,471 41,549 55,616 82,672 116,743 169,778 240,778 293,778 328,747 346,684 L 369,508 C 377,444 397,411 428,410 L 1163,1116 C 1174,1127 1196,1133 1229,1133 1271,1133 1292,1118 1292,1087 L 1292,965 C 1292,929 1282,901 1262,881 L 442,47 C 390,-6 338,-33 285,-33 Z"/>
  </g>
  <g id="bullet-char-template-9679" transform="scale(0.00048828125,-0.00048828125)">
   <path d="M 813,0 C 632,0 489,54 383,161 276,268 223,411 223,592 223,773 276,916 383,1023 489,1130 632,1184 813,1184 992,1184 1136,1130 1245,1023 1353,916 1407,772 1407,592 1407,412 1353,268 1245,161 1136,54 992,0 813,0 Z"/>
  </g>
  <g id="bullet-char-template-8226" transform="scale(0.00048828125,-0.00048828125)">
   <path d="M 346,457 C 273,457 209,483 155,535 101,586 74,649 74,723 74,796 101,859 155,911 209,963 273,989 346,989 419,989 480,963 531,910 582,859 608,796 608,723 608,648 583,586 532,535 482,483 420,457 346,457 Z"/>
  </g>
  <g id="bullet-char-template-8211" transform="scale(0.00048828125,-0.00048828125)">
   <path d="M -4,459 L 1135,459 1135,606 -4,606 -4,459 Z"/>
  </g>
  <g id="bullet-char-template-61548" transform="scale(0.00048828125,-0.00048828125)">
   <path d="M 173,740 C 173,903 231,1043 346,1159 462,1274 601,1332 765,1332 928,1332 1067,1274 1183,1159 1299,1043 1357,903 1357,740 1357,577 1299,437 1183,322 1067,206 928,148 765,148 601,148 462,206 346,322 231,437 173,577 173,740 Z"/>
  </g>
 </defs>
 <g className="Page">
  <g className="com.sun.star.drawing.CustomShape">
   <g id="id3">
    <rect className="BoundingBox" stroke="none" fill="none" x="1001" y="9851" width="10002" height="10002"/>
    <path fill="rgb(5,21,32)" stroke="none" d="M 11002,14852 C 11002,15729 10771,16592 10332,17352 9893,18112 9262,18743 8502,19182 7742,19621 6879,19852 6002,19852 5124,19852 4261,19621 3501,19182 2741,18743 2110,18112 1671,17352 1232,16592 1001,15729 1001,14852 1001,13974 1232,13111 1671,12351 2110,11591 2741,10960 3501,10521 4261,10082 5124,9851 6001,9851 6879,9851 7742,10082 8502,10521 9262,10960 9893,11591 10332,12351 10771,13111 11002,13974 11002,14851 L 11002,14852 Z"/>
   </g>
  </g>
  <g className="Group">
   <g className="com.sun.star.drawing.CustomShape">
    <g id="id4">
     <rect className="BoundingBox" stroke="none" fill="none" x="3244" y="12058" width="5184" height="5688"/>
     <path fill="rgb(255,213,80)" stroke="none" d="M 4987,12058 C 4543,13025 4291,14266 5202,15567 6113,16868 7366,17057 8426,16971 6774,18127 4642,17968 3698,16620 2754,15271 3334,13215 4987,12058 L 4987,12058 Z"/>
    </g>
   </g>
   <g className="com.sun.star.drawing.CustomShape">
    <g id="id5">
     <rect className="BoundingBox" stroke="none" fill="none" x="7533" y="12040" width="1092" height="1093"/>
     <path fill="rgb(255,213,80)" stroke="none" d="M 8078,12040 L 7951,12457 7533,12457 7872,12717 7745,13132 8078,12878 8411,13132 8284,12717 8624,12457 8205,12457 8078,12040 8078,12040 Z"/>
    </g>
   </g>
   <g className="com.sun.star.drawing.CustomShape">
    <g id="id6">
     <rect className="BoundingBox" stroke="none" fill="none" x="7097" y="14440" width="1529" height="1529"/>
     <path fill="rgb(255,213,80)" stroke="none" d="M 7860,14440 L 7682,15024 7097,15024 7572,15388 7393,15968 7860,15612 8327,15968 8148,15388 8624,15024 8038,15024 7860,14440 7860,14440 Z"/>
    </g>
   </g>
   <g className="com.sun.star.drawing.CustomShape">
    <g id="id7">
     <rect className="BoundingBox" stroke="none" fill="none" x="5137" y="11826" width="1528" height="1528"/>
     <path fill="rgb(255,213,80)" stroke="none" d="M 5900,11826 L 5722,12409 5137,12409 5612,12773 5433,13353 5900,12998 6367,13353 6188,12773 6664,12409 6078,12409 5900,11826 5900,11826 Z"/>
    </g>
   </g>
  </g>
  <g className="Group">
   <g className="com.sun.star.drawing.CustomShape">
    <g id="id8">
     <rect className="BoundingBox" stroke="none" fill="none" x="4624" y="13866" width="4627" height="1714"/>
     <path fill="rgb(189,188,188)" stroke="none" d="M 5480,13867 L 5480,13867 C 5330,13867 5182,13907 5052,13982 4922,14057 4814,14165 4739,14295 4664,14425 4624,14573 4624,14723 L 4624,14723 4624,14723 C 4624,14873 4664,15021 4739,15151 4814,15281 4922,15389 5052,15464 5182,15539 5330,15579 5480,15579 L 8394,15579 8394,15579 C 8544,15579 8692,15539 8822,15464 8952,15389 9060,15281 9135,15151 9210,15021 9250,14873 9250,14723 L 9250,14723 9250,14723 9250,14723 C 9250,14573 9210,14425 9135,14295 9060,14165 8952,14057 8822,13982 8692,13907 8544,13867 8394,13867 L 5480,13867 Z"/>
    </g>
   </g>
   <g className="com.sun.star.drawing.CustomShape">
    <g id="id9">
     <rect className="BoundingBox" stroke="none" fill="none" x="4895" y="13456" width="1907" height="1713"/>
     <path fill="rgb(189,188,188)" stroke="none" d="M 6801,14312 C 6801,14463 6757,14610 6673,14740 6590,14870 6469,14978 6325,15053 6180,15128 6015,15168 5848,15168 5681,15168 5516,15128 5372,15053 5227,14978 5106,14870 5023,14740 4939,14610 4895,14463 4895,14312 4895,14162 4939,14015 5023,13885 5106,13755 5227,13647 5371,13572 5516,13497 5681,13457 5848,13457 6015,13457 6180,13497 6324,13572 6469,13647 6590,13755 6673,13885 6757,14015 6801,14162 6801,14312 L 6801,14312 Z"/>
    </g>
   </g>
   <g className="com.sun.star.drawing.CustomShape">
    <g id="id10">
     <rect className="BoundingBox" stroke="none" fill="none" x="7128" y="13114" width="1905" height="1713"/>
     <path fill="rgb(189,188,188)" stroke="none" d="M 9032,13970 C 9032,14120 8988,14268 8904,14398 8821,14528 8701,14636 8556,14711 8411,14786 8247,14826 8080,14826 7913,14826 7749,14786 7604,14711 7459,14636 7339,14528 7256,14398 7172,14268 7128,14120 7128,13970 7128,13820 7172,13672 7256,13542 7339,13412 7459,13304 7604,13229 7749,13154 7913,13114 8080,13114 8247,13114 8411,13154 8556,13229 8701,13304 8821,13412 8904,13542 8988,13672 9032,13820 9032,13970 L 9032,13970 Z"/>
    </g>
   </g>
   <g className="com.sun.star.drawing.CustomShape">
    <g id="id11">
     <rect className="BoundingBox" stroke="none" fill="none" x="5984" y="12497" width="1907" height="1714"/>
     <path fill="rgb(189,188,188)" stroke="none" d="M 7890,13354 C 7890,13504 7846,13652 7762,13782 7679,13912 7558,14020 7414,14095 7269,14170 7104,14210 6937,14210 6770,14210 6605,14170 6461,14095 6316,14020 6195,13912 6112,13782 6028,13652 5984,13504 5984,13354 5984,13204 6028,13056 6112,12926 6195,12796 6316,12688 6460,12613 6605,12538 6770,12498 6937,12498 7104,12498 7269,12538 7413,12613 7558,12688 7679,12796 7762,12926 7846,13056 7890,13204 7890,13354 L 7890,13354 Z"/>
    </g>
   </g>
  </g>
  <g className="Group">
   <g className="com.sun.star.drawing.CustomShape">
    <g id="id12">
     <rect className="BoundingBox" stroke="none" fill="none" x="1521" y="15638" width="6225" height="1963"/>
     <path fill="rgb(251,251,251)" stroke="none" d="M 2502,15638 L 2502,15638 C 2330,15638 2161,15683 2011,15769 1862,15856 1739,15979 1652,16129 1566,16278 1521,16447 1521,16619 L 1521,16619 1521,16619 C 1521,16791 1566,16960 1652,17110 1739,17259 1862,17382 2012,17469 2161,17555 2330,17600 2502,17600 L 6764,17600 6764,17600 C 6936,17600 7105,17555 7254,17469 7404,17382 7527,17259 7614,17110 7700,16960 7745,16791 7745,16619 L 7745,16619 7745,16619 7745,16619 C 7745,16447 7700,16278 7614,16129 7527,15979 7404,15856 7254,15769 7105,15683 6936,15638 6764,15638 L 2502,15638 Z"/>
    </g>
   </g>
   <g className="com.sun.star.drawing.CustomShape">
    <g id="id13">
     <rect className="BoundingBox" stroke="none" fill="none" x="1887" y="15169" width="2566" height="1962"/>
     <path fill="rgb(251,251,251)" stroke="none" d="M 4452,16150 C 4452,16322 4393,16491 4280,16640 4168,16789 4006,16913 3811,16999 3616,17085 3395,17130 3170,17130 2944,17130 2723,17085 2528,16999 2333,16913 2171,16789 2059,16640 1946,16491 1887,16322 1887,16150 1887,15977 1946,15808 2059,15659 2171,15510 2333,15386 2528,15300 2723,15214 2944,15169 3169,15169 3395,15169 3616,15214 3811,15300 4006,15386 4168,15510 4280,15659 4393,15808 4452,15977 4452,16149 L 4452,16150 Z"/>
    </g>
   </g>
   <g className="com.sun.star.drawing.CustomShape">
    <g id="id14">
     <rect className="BoundingBox" stroke="none" fill="none" x="4891" y="14776" width="2564" height="1963"/>
     <path fill="rgb(251,251,251)" stroke="none" d="M 7454,15757 C 7454,15929 7395,16098 7282,16248 7170,16397 7008,16520 6813,16607 6618,16693 6397,16738 6173,16738 5948,16738 5727,16693 5532,16607 5337,16520 5175,16397 5063,16248 4950,16098 4891,15929 4891,15757 4891,15585 4950,15416 5063,15267 5175,15117 5337,14994 5532,14907 5727,14821 5948,14776 6172,14776 6397,14776 6618,14821 6813,14907 7008,14994 7170,15117 7282,15267 7395,15416 7454,15585 7454,15757 L 7454,15757 Z"/>
    </g>
   </g>
   <g className="com.sun.star.drawing.CustomShape">
    <g id="id15">
     <rect className="BoundingBox" stroke="none" fill="none" x="3352" y="14070" width="2563" height="1963"/>
     <path fill="rgb(251,251,251)" stroke="none" d="M 5914,15051 C 5914,15223 5855,15392 5742,15542 5630,15691 5468,15814 5274,15901 5079,15987 4858,16032 4633,16032 4408,16032 4187,15987 3993,15901 3798,15814 3636,15691 3524,15542 3411,15392 3352,15223 3352,15051 3352,14879 3411,14710 3524,14561 3636,14411 3798,14288 3992,14201 4187,14115 4408,14070 4633,14070 4858,14070 5079,14115 5273,14201 5468,14288 5630,14411 5742,14561 5855,14710 5914,14879 5914,15051 L 5914,15051 Z"/>
    </g>
   </g>
  </g>
  <g className="Group">
   <g className="com.sun.star.drawing.CustomShape">
    <g id="id16">
     <rect className="BoundingBox" stroke="none" fill="none" x="5195" y="16543" width="4752" height="1760"/>
     <path fill="rgb(220,220,219)" stroke="none" d="M 6074,16543 L 6075,16543 C 5920,16543 5768,16584 5635,16661 5501,16738 5390,16849 5313,16983 5236,17116 5195,17268 5195,17423 L 5195,17422 5195,17423 C 5195,17577 5236,17729 5313,17862 5390,17996 5501,18107 5635,18184 5768,18261 5920,18302 6075,18302 L 9066,18301 9067,18302 C 9221,18302 9373,18261 9506,18184 9640,18107 9751,17996 9828,17862 9905,17729 9946,17577 9946,17423 L 9946,17422 9946,17423 9946,17423 C 9946,17268 9905,17116 9828,16983 9751,16849 9640,16738 9506,16661 9373,16584 9221,16543 9067,16543 L 6074,16543 Z"/>
    </g>
   </g>
   <g className="com.sun.star.drawing.CustomShape">
    <g id="id17">
     <rect className="BoundingBox" stroke="none" fill="none" x="5472" y="16122" width="1959" height="1758"/>
     <path fill="rgb(220,220,219)" stroke="none" d="M 7430,17001 C 7430,17155 7385,17306 7299,17440 7213,17573 7089,17684 6941,17761 6792,17838 6623,17879 6451,17879 6279,17879 6110,17838 5962,17761 5813,17684 5689,17573 5603,17440 5517,17306 5472,17155 5472,17001 5472,16846 5517,16695 5603,16561 5689,16428 5813,16317 5961,16240 6110,16163 6279,16122 6451,16122 6623,16122 6792,16163 6940,16240 7089,16317 7213,16428 7299,16561 7385,16695 7430,16846 7430,17001 L 7430,17001 Z"/>
    </g>
   </g>
   <g className="com.sun.star.drawing.CustomShape">
    <g id="id18">
     <rect className="BoundingBox" stroke="none" fill="none" x="7766" y="15770" width="1957" height="1760"/>
     <path fill="rgb(220,220,219)" stroke="none" d="M 9722,16650 C 9722,16804 9677,16956 9591,17089 9505,17223 9382,17334 9233,17411 9084,17488 8916,17529 8744,17529 8572,17529 8404,17488 8255,17411 8106,17334 7983,17223 7897,17089 7811,16956 7766,16804 7766,16650 7766,16495 7811,16343 7897,16210 7983,16076 8106,15965 8255,15888 8404,15811 8572,15770 8744,15770 8916,15770 9084,15811 9233,15888 9382,15965 9505,16076 9591,16210 9677,16343 9722,16495 9722,16650 L 9722,16650 Z"/>
    </g>
   </g>
   <g className="com.sun.star.drawing.CustomShape">
    <g id="id19">
     <rect className="BoundingBox" stroke="none" fill="none" x="6591" y="15137" width="1959" height="1760"/>
     <path fill="rgb(220,220,219)" stroke="none" d="M 8549,16017 C 8549,16171 8504,16323 8418,16456 8332,16590 8208,16701 8060,16778 7911,16855 7742,16896 7570,16896 7398,16896 7229,16855 7081,16778 6932,16701 6808,16590 6722,16456 6636,16323 6591,16171 6591,16017 6591,15862 6636,15710 6722,15577 6808,15443 6932,15332 7081,15255 7229,15178 7398,15137 7570,15137 7742,15137 7911,15178 8059,15255 8208,15332 8332,15443 8418,15577 8504,15710 8549,15862 8549,16017 L 8549,16017 Z"/>
    </g>
   </g>
  </g>
  <g className="com.sun.star.drawing.ClosedBezierShape">
   <g id="id20">
    <rect className="BoundingBox" stroke="none" fill="none" x="5415" y="17570" width="2003" height="2003"/>
    <path fill="rgb(255,255,255)" stroke="none" d="M 6416,17571 C 6503,17774 6591,17976 6678,18179 6924,18144 7171,18109 7417,18074 7258,18242 7098,18411 6939,18579 7098,18742 7258,18905 7417,19068 7171,19033 6924,18998 6678,18963 6591,19166 6503,19369 6416,19572 6329,19369 6241,19166 6154,18963 5908,18998 5662,19033 5416,19068 5575,18905 5734,18742 5893,18579 5734,18411 5575,18242 5416,18074 5662,18109 5908,18144 6154,18179 6241,17976 6329,17774 6416,17571 L 6416,17571 Z"/>
   </g>
  </g>
  <g className="com.sun.star.drawing.ClosedBezierShape">
   <g id="id21">
    <rect className="BoundingBox" stroke="none" fill="none" x="3073" y="17093" width="2002" height="2003"/>
    <path fill="rgb(255,255,255)" stroke="none" d="M 4073,17094 C 4160,17297 4248,17499 4335,17702 4581,17667 4828,17632 5074,17597 4915,17765 4755,17934 4596,18102 4755,18265 4915,18428 5074,18591 4828,18556 4581,18521 4335,18486 4248,18689 4160,18892 4073,19095 3986,18892 3898,18689 3811,18486 3565,18521 3319,18556 3073,18591 3232,18428 3391,18265 3550,18102 3391,17934 3232,17765 3073,17597 3319,17632 3565,17667 3811,17702 3898,17499 3986,17297 4073,17094 L 4073,17094 Z"/>
   </g>
  </g>
 </g>
</svg>